<svg width="60" height="60" viewBox="0 0 60 60" fill="none" xmlns="http://www.w3.org/2000/svg">
<g clip-path="url(#clip0)">
<path d="M43.125 30H35.625C34.5894 30 33.75 30.8394 33.75 31.875V46.875C33.75 47.9106 34.5894 48.75 35.625 48.75H43.125C45.1961 48.75 46.875 47.0711 46.875 45V33.75C46.875 31.6789 45.1961 30 43.125 30ZM43.125 45H37.5V33.75H43.125V45Z" fill="#999999"/>
<path d="M60 33.75V30H50.625C49.5894 30 48.75 30.8394 48.75 31.875V48.75H52.5V41.25H60V37.5H52.5V33.75H60Z" fill="#999999"/>
<path d="M3.75 54.375V5.62503C3.75 4.58944 4.58941 3.75003 5.625 3.75003H33.75V11.25C33.75 13.3211 35.4289 15 37.5 15H45V20.625H48.75V13.125C48.7529 12.6266 48.5572 12.1476 48.2062 11.7938L36.9562 0.54378C36.6025 0.192803 36.1234 -0.00278258 35.625 2.99179e-05H5.625C2.51836 2.99179e-05 0 2.51851 0 5.62503V54.375C0 57.4817 2.51836 60 5.625 60H18.75V56.25H5.625C4.58953 56.25 3.75 55.4106 3.75 54.375Z" fill="#999999"/>
<path d="M28.125 30H20.625C19.5894 30 18.75 30.8394 18.75 31.875V48.75H22.5V43.125H28.125C30.1961 43.125 31.875 41.4461 31.875 39.375V33.75C31.875 31.6789 30.1961 30 28.125 30ZM28.125 39.375H22.5V33.75H28.125V39.375Z" fill="#999999"/>
</g>
<defs>
<clipPath id="clip0">
<rect width="60" height="60" fill="white"/>
</clipPath>
</defs>
</svg>
