<svg width="194" height="71" viewBox="0 0 194 71" fill="none" xmlns="http://www.w3.org/2000/svg">
<path d="M69.8268 10.8682L62.3251 54.0224C62.3251 54.0224 13.3038 44.5295 0 70.0017C13.1381 41.3872 59.3295 46.9097 59.3295 46.9097L64.3583 13.2568H59.8097V10.3289C64.8384 9.59642 69.8268 10.8682 69.8268 10.8682Z" fill="#FF6C6C"/>
<path d="M27.4922 25.4816L27.2224 39.3376C25.2551 39.8514 23.2538 40.429 21.2461 41.0914L21.5605 25.3945L27.4922 25.4816Z" fill="#FF6C6C"/>
<path d="M38.2418 16.8704L37.853 37.1577C35.96 37.4528 33.9587 37.8116 31.9043 38.2469L32.3292 16.7812L38.2418 16.8704Z" fill="#FF6C6C"/>
<path d="M49.0125 7.38214L48.4389 35.9541C46.7733 36.0688 44.7592 36.2471 42.4902 36.5147L43.0681 7.29297L49.0125 7.38214Z" fill="#FF6C6C"/>
<path d="M58.2588 0L55.7391 43.9313C55.7391 43.9313 10.2848 40.4301 0 67.7303C9.77282 37.3408 51.9617 37.3408 51.9617 37.3408L53.2215 4.39291C53.2215 4.39291 13.8562 5.49061 1.76973 27.1155C1.7039 27.2637 1.65817 27.4201 1.63376 27.5805C1.67002 27.1641 1.7556 26.7536 1.8887 26.3575C14.4871 0 58.2588 0 58.2588 0Z" fill="#1A4E87"/>
<path d="M80.9736 23.6887V16.0133L81.1436 16.2469L78.5687 23.6887H77.0156V12.4357H78.7705V20.1706L78.592 19.937L81.1903 12.4336H82.7264V23.6866L80.9736 23.6887Z" fill="#1A4E87"/>
<path d="M84.1074 12.4258H86.0301V23.6979H84.1074V12.4258ZM85.0231 17.2391H88.8047V19.0459H85.0231V17.2391ZM87.5513 12.4258H89.4761V23.6979H87.5513V12.4258Z" fill="#1A4E87"/>
<path d="M92.4417 22.0521C91.8481 21.7775 91.355 21.3248 91.031 20.7569C90.693 20.1304 90.5259 19.426 90.5466 18.7144V17.0159C90.5262 16.3044 90.6933 15.6 91.031 14.9733C91.355 14.4055 91.8481 13.9528 92.4417 13.6782C93.1486 13.3838 93.9067 13.2323 94.6725 13.2323C95.4382 13.2323 96.1964 13.3838 96.9032 13.6782C97.4968 13.9528 97.9899 14.4055 98.3139 14.9733C98.6536 15.5993 98.8215 16.304 98.8004 17.0159V18.7144C98.8215 19.4262 98.6536 20.131 98.3139 20.7569C97.9899 21.3248 97.4968 21.7775 96.9032 22.0521C96.1964 22.3464 95.4382 22.498 94.6725 22.498C93.9067 22.498 93.1486 22.3464 92.4417 22.0521ZM96.302 20.0945C96.4957 19.9227 96.6479 19.7093 96.7473 19.4703C96.8466 19.2312 96.8905 18.9728 96.8756 18.7144V17.0159C96.8903 16.7575 96.8464 16.4991 96.7471 16.2601C96.6477 16.0211 96.4956 15.8077 96.302 15.6358C95.9196 15.3102 95.3764 15.1474 94.6725 15.1474C93.9685 15.1474 93.4289 15.313 93.0536 15.6443C92.86 15.8162 92.7078 16.0296 92.6085 16.2686C92.5092 16.5076 92.4652 16.766 92.48 17.0244V18.7229C92.4651 18.9813 92.5089 19.2397 92.6083 19.4787C92.7076 19.7178 92.8599 19.9312 93.0536 20.103C93.436 20.4286 93.9792 20.5913 94.6831 20.5913C95.387 20.5913 95.9267 20.4257 96.302 20.0945ZM93.7101 12.0391H95.6349V23.6997H93.7101V12.0391Z" fill="#1A4E87"/>
<path d="M100.892 23.5C100.477 23.3065 100.131 22.99 99.9018 22.5934C99.6636 22.1548 99.5456 21.6612 99.5597 21.1624V14.9605C99.546 14.4604 99.6639 13.9654 99.9018 13.5252C100.129 13.1271 100.475 12.8101 100.892 12.6186C101.385 12.4139 101.913 12.3086 102.447 12.3086C102.981 12.3086 103.509 12.4139 104.002 12.6186C104.418 12.8108 104.763 13.1277 104.99 13.5252C105.228 13.9654 105.346 14.4604 105.332 14.9605V21.1624C105.346 21.6612 105.228 22.1548 104.99 22.5934C104.761 22.9894 104.416 23.3058 104.002 23.5C103.51 23.7074 102.981 23.8143 102.447 23.8143C101.913 23.8143 101.384 23.7074 100.892 23.5ZM102.955 21.7739C103.095 21.6999 103.207 21.5831 103.276 21.4405C103.353 21.2759 103.391 21.0957 103.386 20.914V15.1919C103.39 15.013 103.352 14.8355 103.276 14.6738C103.206 14.5317 103.094 14.415 102.955 14.3405C102.798 14.259 102.623 14.2188 102.447 14.2237C102.271 14.2183 102.097 14.2586 101.941 14.3405C101.804 14.4164 101.693 14.5328 101.625 14.6738C101.549 14.8357 101.512 15.0131 101.516 15.1919V20.9246C101.511 21.1061 101.548 21.2864 101.625 21.4511C101.693 21.5925 101.804 21.7091 101.941 21.7845C102.097 21.8664 102.271 21.9066 102.447 21.9012C102.624 21.9029 102.799 21.859 102.955 21.7739Z" fill="#1A4E87"/>
<path d="M106.557 12.4231H108.479V23.6952H106.557V12.4231ZM107.457 17.4785H109.45C109.593 17.4823 109.733 17.4439 109.854 17.3681C109.971 17.291 110.063 17.1809 110.117 17.0517C110.183 16.8944 110.215 16.7252 110.211 16.5549V15.23C110.215 15.0524 110.185 14.8758 110.122 14.7098C110.071 14.5758 109.979 14.4608 109.86 14.3807C109.738 14.3034 109.595 14.2642 109.45 14.2682H107.457V12.4231H109.503C109.998 12.4094 110.49 12.5104 110.94 12.7182C111.327 12.904 111.644 13.2082 111.847 13.5866C112.063 14.0093 112.17 14.4794 112.157 14.954V16.8649C112.171 17.3305 112.062 17.7917 111.842 18.2025C111.634 18.5734 111.316 18.8703 110.931 19.0518C110.482 19.2479 109.993 19.3394 109.503 19.3193H107.457V17.4785Z" fill="#1A4E87"/>
<path d="M119.209 12.4258H121.009V23.6979H119.294V15.8293L119.411 16.324L117.775 21.7063H116.813L115.177 16.4811L115.332 15.8293V23.6979H113.577V12.4258H115.425L117.293 18.5491L119.209 12.4258Z" fill="#1A4E87"/>
<path d="M124.384 12.4258H125.733L128.425 23.6979H126.513L125.055 16.3091L123.596 23.6979H121.684L124.384 12.4258ZM123.523 20.1479H126.596V21.9462H123.523V20.1479Z" fill="#1A4E87"/>
<path d="M129.265 12.4258H131.177V23.6979H129.265V12.4258ZM130.69 21.8528H133.845V23.6979H130.69V21.8528ZM132.738 12.4258H134.663V23.6979H132.738V12.4258ZM133.801 21.8528H135.568V26.2648H133.803L133.801 21.8528Z" fill="#1A4E87"/>
<path d="M140.557 23.6887V16.0133L140.727 16.2469L138.152 23.6887H136.605V12.4357H138.358V20.1706L138.18 19.937L140.778 12.4336H142.314V23.6866L140.557 23.6887Z" fill="#1A4E87"/>
<path d="M145.022 23.4999C144.608 23.3057 144.263 22.9893 144.035 22.5933C143.796 22.1548 143.678 21.6611 143.693 21.1623V14.9604C143.681 14.4595 143.802 13.9645 144.043 13.5251C144.27 13.1276 144.615 12.8107 145.031 12.6185C145.524 12.4139 146.053 12.3086 146.587 12.3086C147.121 12.3086 147.65 12.4139 148.143 12.6185C148.559 12.8107 148.904 13.1276 149.131 13.5251C149.369 13.9653 149.487 14.4603 149.473 14.9604V21.1623C149.488 21.6611 149.37 22.1548 149.131 22.5933C148.902 22.9893 148.558 23.3057 148.143 23.4999C147.651 23.7073 147.122 23.8141 146.587 23.8141C146.053 23.8141 145.524 23.7073 145.031 23.4999H145.022ZM147.088 21.7738C147.227 21.6998 147.34 21.583 147.408 21.4404C147.485 21.2757 147.522 21.0954 147.517 20.9139V15.1918C147.522 15.013 147.484 14.8356 147.408 14.6738C147.339 14.5316 147.227 14.415 147.088 14.3404C146.93 14.2587 146.755 14.2185 146.578 14.2236C146.403 14.2184 146.229 14.2587 146.074 14.3404C145.936 14.4157 145.824 14.5322 145.755 14.6738C145.679 14.8356 145.642 15.013 145.647 15.1918V20.9245C145.642 21.106 145.679 21.2863 145.755 21.451C145.824 21.593 145.935 21.7097 146.074 21.7844C146.229 21.8661 146.403 21.9064 146.578 21.9012C146.756 21.9031 146.931 21.8592 147.088 21.7738Z" fill="#1A4E87"/>
<path d="M150.69 12.4258H152.613V23.6979H150.69V12.4258ZM151.606 17.2391H155.384V19.0459H151.606V17.2391ZM154.134 12.4258H156.046V23.6979H154.134V12.4258Z" fill="#1A4E87"/>
<path d="M157.438 12.4258H159.362V23.6979H157.438V12.4258ZM158.353 17.2391H162.131V19.0459H158.353V17.2391ZM160.883 12.4258H162.806V23.6979H160.883V12.4258Z" fill="#1A4E87"/>
<path d="M166.182 12.4258H167.531L170.223 23.6979H168.31L166.851 16.3091L165.394 23.6979H163.481L166.182 12.4258ZM165.319 20.1479H168.391V21.9462H165.319V20.1479Z" fill="#1A4E87"/>
<path d="M172.186 19.0079C171.769 18.8078 171.426 18.4826 171.204 18.0779C170.969 17.6261 170.853 17.122 170.866 16.6129V14.9759C170.853 14.4919 170.969 14.013 171.204 13.5894C171.432 13.2024 171.775 12.8964 172.186 12.7147C172.672 12.5036 173.198 12.4014 173.728 12.4153H175.358V14.2604H174.008C173.782 14.2541 173.557 14.306 173.356 14.4111C173.172 14.5138 173.025 14.6721 172.936 14.8634C172.835 15.0799 172.785 15.3168 172.791 15.5555V16.1925C172.785 16.432 172.834 16.6696 172.936 16.8868C173.027 17.075 173.176 17.2296 173.361 17.3284C173.561 17.4352 173.786 17.4879 174.013 17.4813H175.362V19.3221H173.732C173.199 19.3384 172.67 19.2309 172.186 19.0079ZM172.487 18.6193L174.302 18.976L172.991 23.698H170.866L172.487 18.6193ZM174.535 12.4174H176.467V23.698H174.535V12.4174Z" fill="#1A4E87"/>
<path d="M78.2652 39.8829C77.8633 39.6582 77.54 39.3159 77.3389 38.902C77.1118 38.4175 77.0012 37.8868 77.0159 37.352V31.5833C77.0015 31.0485 77.112 30.5178 77.3389 30.0333C77.54 29.6194 77.8633 29.277 78.2652 29.0524C78.72 28.8303 79.2196 28.7148 79.7258 28.7148C80.232 28.7148 80.7316 28.8303 81.1864 29.0524C81.591 29.2762 81.9155 29.6206 82.1148 30.0376C82.3374 30.5248 82.4457 31.0564 82.4314 31.5918V32.4984H80.4853V31.5918C80.4884 31.4223 80.4596 31.2537 80.4003 31.0949C80.3489 30.9634 80.2575 30.8512 80.139 30.7743C80.0147 30.6976 79.8708 30.6585 79.7247 30.6618C79.5825 30.6581 79.4423 30.6957 79.3211 30.7701C79.2035 30.8466 79.1128 30.9579 79.0619 31.0886C78.9989 31.2457 78.9685 31.414 78.9726 31.5833V37.352C78.9685 37.5206 78.9989 37.6882 79.0619 37.8446C79.1141 37.9734 79.2045 38.083 79.3211 38.1588C79.4423 38.2332 79.5825 38.2708 79.7247 38.2671C79.8739 38.2731 80.0216 38.2355 80.1496 38.1588C80.266 38.0834 80.3559 37.9736 80.4067 37.8446C80.4667 37.6845 80.4955 37.5144 80.4917 37.3435V36.4369H82.4314V37.3435C82.4454 37.8796 82.3371 38.4118 82.1148 38.8998C81.9154 39.3162 81.5908 39.6599 81.1864 39.8829C80.7316 40.105 80.232 40.2204 79.7258 40.2204C79.2196 40.2204 78.72 40.105 78.2652 39.8829Z" fill="#1A4E87"/>
<path d="M87.4585 40.0978V32.4224L87.6306 32.6538L85.0535 40.0978H83.4941V28.832H85.2469V36.569L85.0684 36.3376L87.6667 28.832H89.2049V40.0978H87.4585Z" fill="#1A4E87"/>
<path d="M91.8413 39.8829C91.439 39.6589 91.1155 39.3163 90.915 38.902C90.688 38.4175 90.5774 37.8868 90.5921 37.352V31.5833C90.5776 31.0485 90.6882 30.5178 90.915 30.0333C91.1155 29.6189 91.439 29.2764 91.8413 29.0524C92.2962 28.8303 92.7957 28.7148 93.302 28.7148C93.8082 28.7148 94.3077 28.8303 94.7626 29.0524C95.1671 29.2756 95.4911 29.6202 95.6889 30.0376C95.9132 30.5243 96.0222 31.0561 96.0075 31.5918V32.4984H94.0615V31.5918C94.0646 31.4223 94.0358 31.2537 93.9765 31.0949C93.9251 30.9634 93.8337 30.8512 93.7152 30.7743C93.5909 30.6976 93.447 30.6585 93.3009 30.6618C93.1587 30.6581 93.0185 30.6957 92.8972 30.7701C92.7797 30.8466 92.689 30.9579 92.638 31.0886C92.575 31.2457 92.5447 31.414 92.5488 31.5833V37.352C92.5447 37.5206 92.575 37.6882 92.638 37.8446C92.6903 37.9734 92.7807 38.083 92.8972 38.1588C93.0185 38.2332 93.1587 38.2708 93.3009 38.2671C93.4501 38.2731 93.5977 38.2355 93.7258 38.1588C93.8422 38.0834 93.9321 37.9736 93.9829 37.8446C94.0429 37.6845 94.0717 37.5144 94.0679 37.3435V36.4369H96.0139V37.3435C96.0283 37.8798 95.9193 38.4123 95.6952 38.8998C95.4974 39.3165 95.1733 39.6605 94.7689 39.8829C94.3141 40.105 93.8146 40.2204 93.3083 40.2204C92.8021 40.2204 92.3026 40.105 91.8477 39.8829H91.8413Z" fill="#1A4E87"/>
<path d="M96.4541 28.832H102.105V30.6771H96.4541V28.832ZM98.3152 29.779H100.24V40.1041H98.3152V29.779Z" fill="#1A4E87"/>
<path d="M103.021 28.832H104.933V40.1041H103.021V28.832ZM103.87 28.832H108.032V30.7089H103.875L103.87 28.832ZM103.87 33.5689H107.639V35.4373H103.875L103.87 33.5689ZM103.87 38.24H108.032V40.1147H103.875L103.87 38.24Z" fill="#1A4E87"/>
<path d="M114.656 28.832H116.455V40.1041H114.741V32.2355L114.857 32.7324L113.222 38.1126H112.259L110.621 32.8874L110.776 32.2355V40.1041H109.023V28.832H110.87L112.739 34.9575L114.656 28.832Z" fill="#1A4E87"/>
<path d="M119.822 28.832H121.171L123.863 40.1041H121.951L120.492 32.7175L119.034 40.1041H117.122L119.822 28.832ZM118.973 36.5541H122.045V38.3525H118.973V36.5541Z" fill="#1A4E87"/>
<path d="M127.325 28.832H129.35L130.837 37.2208L129.611 38.4841L127.325 28.832ZM131.559 38.2187C131.489 38.6099 131.328 38.9793 131.09 39.2973C130.86 39.5967 130.557 39.8327 130.21 39.9831C129.825 40.1458 129.411 40.2261 128.993 40.2188H128.201V38.2888H128.993C129.188 38.2914 129.38 38.2392 129.547 38.1381C129.716 38.0318 129.856 37.886 129.955 37.7134C130.067 37.5046 130.139 37.2772 130.168 37.0425L131.519 28.8405H133.459L131.559 38.2187Z" fill="#1A4E87"/>
<path d="M134.15 28.832H136.062V40.1041H134.15V28.832ZM135.16 28.832H138.758V30.6707H135.16V28.832ZM137.594 28.832H139.519V40.1041H137.594V28.832Z" fill="#1A4E87"/>
<path d="M140.901 28.8315H142.813V40.1036H140.901V28.8315ZM141.8 33.8868H143.795C143.937 33.8906 144.076 33.853 144.196 33.7786C144.315 33.7013 144.407 33.5904 144.462 33.4601C144.527 33.3026 144.558 33.1334 144.553 32.9632V31.6362C144.558 31.4587 144.527 31.2821 144.464 31.1161C144.414 30.9822 144.323 30.8672 144.205 30.787C144.082 30.7099 143.94 30.6708 143.795 30.6744H141.8V28.8294H143.848C144.343 28.8156 144.835 28.9166 145.284 29.1245C145.671 29.3092 145.988 29.6118 146.191 29.9886C146.408 30.4119 146.515 30.8828 146.502 31.3581V33.2562C146.516 33.7219 146.407 34.1831 146.187 34.5939C145.979 34.9643 145.66 35.2611 145.276 35.4432C144.828 35.6473 144.34 35.7468 143.848 35.734H141.8V33.8868Z" fill="#1A4E87"/>
<path d="M149.371 28.832H150.72L153.412 40.1041H151.5L150.043 32.7175L148.583 40.1041H146.671L149.371 28.832ZM148.504 36.5541H151.576V38.3525H148.504V36.5541Z" fill="#1A4E87"/>
<path d="M154.252 28.832H156.183V40.1041H154.252V28.832ZM155.352 38.2994H157.052C157.153 38.3056 157.253 38.2919 157.348 38.2591C157.444 38.2263 157.531 38.1751 157.607 38.1083C157.675 38.0384 157.727 37.9551 157.761 37.8637C157.795 37.7723 157.81 37.6748 157.804 37.5775V36.0658C157.809 35.902 157.778 35.7392 157.715 35.5881C157.66 35.4618 157.566 35.3562 157.447 35.2866C157.318 35.2143 157.171 35.1783 157.022 35.1825H155.361V33.399H156.976C157.074 33.4049 157.173 33.389 157.265 33.3523C157.357 33.3155 157.439 33.259 157.507 33.1867C157.643 33.0089 157.71 32.788 157.696 32.5646V31.3565C157.702 31.2599 157.688 31.1631 157.655 31.0719C157.623 30.9807 157.572 30.8969 157.507 30.8257C157.437 30.7599 157.354 30.7091 157.264 30.6762C157.174 30.6434 157.078 30.6292 156.982 30.6346H155.361V28.8363H157.177C157.627 28.8244 158.073 28.9174 158.48 29.108C158.832 29.2797 159.121 29.5575 159.306 29.9021C159.504 30.2923 159.602 30.7259 159.589 31.1633V32.3714C159.596 32.6838 159.529 32.9935 159.395 33.2759C159.266 33.5335 159.072 33.753 158.832 33.9129C158.565 34.0895 158.262 34.2041 157.944 34.2483C158.287 34.2888 158.617 34.4025 158.911 34.5817C159.171 34.7471 159.382 34.9786 159.523 35.2526C159.67 35.553 159.743 35.8843 159.735 36.2187V37.7537C159.748 38.195 159.652 38.6326 159.455 39.0277C159.273 39.3743 158.987 39.655 158.637 39.8302C158.234 40.0224 157.791 40.1162 157.345 40.1041H155.359L155.352 38.2994Z" fill="#1A4E87"/>
<path d="M160.683 38.2824C160.815 38.288 160.947 38.2587 161.065 38.1975C161.167 38.1391 161.247 38.0478 161.29 37.9385C161.344 37.7982 161.369 37.6489 161.365 37.499V28.832H163.289V37.5924C163.306 38.0757 163.215 38.5567 163.022 39.0001C162.851 39.3609 162.564 39.6535 162.206 39.8302C161.774 40.0269 161.303 40.1206 160.829 40.1041H160.683V38.2824ZM162.652 28.832H165.578V30.6771H162.652V28.832ZM164.522 28.832H166.446V40.1041H164.522V28.832Z" fill="#1A4E87"/>
<path d="M167.838 28.832H169.75V40.1041H167.838V28.832ZM168.688 28.832H172.845V30.7089H168.688V28.832ZM168.688 33.5689H172.459V35.4373H168.688V33.5689ZM168.688 38.24H172.845V40.1147H168.688V38.24Z" fill="#1A4E87"/>
<path d="M173.831 28.832H175.743V40.1041H173.831V28.832ZM174.747 33.6475H178.524V35.4586H174.747V33.6475ZM177.275 28.832H179.198V40.1041H177.275V28.832Z" fill="#1A4E87"/>
<path d="M184.536 40.0978V32.4224L184.706 32.6538L182.131 40.0978H180.584V28.832H182.339V36.569L182.16 36.3376L184.759 28.832H186.295V40.0978H184.536Z" fill="#1A4E87"/>
<path d="M188.793 35.4139C188.377 35.2139 188.034 34.8887 187.812 34.484C187.576 34.0324 187.46 33.5281 187.474 33.019V31.382C187.46 30.8993 187.577 30.4218 187.812 29.9998C188.039 29.6121 188.382 29.3054 188.793 29.1229C189.28 28.9123 189.807 28.8109 190.338 28.8256H191.967V30.6707H190.616C190.39 30.6637 190.166 30.7156 189.966 30.8214C189.781 30.9199 189.632 31.0746 189.541 31.2631C189.441 31.4804 189.392 31.7181 189.399 31.9574V32.5943C189.392 32.8336 189.441 33.0711 189.541 33.2886C189.633 33.4767 189.781 33.6312 189.966 33.7302C190.166 33.8352 190.39 33.8871 190.616 33.881H191.967V35.726H190.338C189.806 35.7425 189.277 35.6357 188.793 35.4139ZM189.097 35.0275L190.911 35.3842L189.6 40.1041H187.476L189.097 35.0275ZM191.145 28.8256H193.076V40.1041H191.145V28.8256Z" fill="#1A4E87"/>
<path d="M78.3489 56.3104C77.9331 56.1176 77.5873 55.8009 77.3588 55.4038C77.1205 54.9653 77.0025 54.4716 77.0168 53.9727V47.7709C77.003 47.2714 77.121 46.7771 77.3588 46.3377C77.5861 45.9396 77.9323 45.6226 78.3489 45.4311C78.8418 45.2264 79.3703 45.1211 79.904 45.1211C80.4378 45.1211 80.9663 45.2264 81.4592 45.4311C81.875 45.6238 82.2208 45.9405 82.4492 46.3377C82.6864 46.7773 82.8036 47.2716 82.7891 47.7709V53.9727C82.8042 54.4714 82.6869 54.9651 82.4492 55.4038C82.2195 55.7999 81.8741 56.1163 81.4592 56.3104C80.967 56.5178 80.4382 56.6247 79.904 56.6247C79.3698 56.6247 78.8411 56.5178 78.3489 56.3104ZM80.4118 54.5864C80.5509 54.5107 80.6635 54.3944 80.7347 54.253C80.8112 54.0883 80.8483 53.908 80.8431 53.7265V47.9938C80.8476 47.8144 80.8106 47.6363 80.7347 47.4736C80.6635 47.3322 80.5509 47.2159 80.4118 47.1403C80.2547 47.0606 80.0802 47.0212 79.904 47.0256C79.7285 47.0205 79.5545 47.06 79.3984 47.1403C79.2616 47.2168 79.1512 47.3331 79.0818 47.4736C79.006 47.6363 78.9689 47.8144 78.9735 47.9938V53.7265C78.9682 53.908 79.0053 54.0883 79.0818 54.253C79.1512 54.3936 79.2616 54.5098 79.3984 54.5864C79.5544 54.6673 79.7283 54.7075 79.904 54.7031C80.0803 54.7069 80.2548 54.6668 80.4118 54.5864Z" fill="#1A4E87"/>
<path d="M84.0137 45.2383H85.9385V56.5125H84.0137V45.2383ZM84.9994 54.6653H86.7373C86.9158 54.6699 87.092 54.6235 87.2451 54.5316C87.3916 54.4364 87.5063 54.2996 87.5744 54.1388C87.6572 53.9458 87.6971 53.7372 87.6912 53.5273V52.627C87.6968 52.4093 87.6585 52.1927 87.5786 51.9901C87.5128 51.825 87.3979 51.6842 87.2493 51.5867C87.096 51.4909 86.918 51.4422 86.7373 51.4465H84.9994V49.6015H87.0857C87.5595 49.5878 88.0291 49.6929 88.4518 49.9072C88.8237 50.1082 89.1253 50.4179 89.3165 50.7947C89.5249 51.2303 89.6269 51.7091 89.6139 52.1918V53.9732C89.6268 54.4469 89.5248 54.9168 89.3165 55.3426C89.1242 55.7153 88.8205 56.0188 88.4476 56.211C88.0248 56.4202 87.5573 56.5229 87.0857 56.5104H84.9994V54.6653ZM85.1694 45.2383H89.1104V47.0833H85.1694V45.2383Z" fill="#1A4E87"/>
<path d="M90.8018 45.2394H92.7266V56.5136H90.8018V45.2394ZM91.7026 50.2947H93.6911C93.8333 50.2982 93.9734 50.2606 94.0948 50.1864C94.2125 50.1089 94.3042 49.998 94.3582 49.8679C94.4237 49.7114 94.4556 49.5429 94.4517 49.3732V48.0462C94.4561 47.8694 94.4258 47.6934 94.3625 47.5282C94.3116 47.3941 94.2212 47.2786 94.1033 47.1969C93.9799 47.1199 93.8366 47.0808 93.6911 47.0844H91.6983V45.2394H93.7464C94.2407 45.2266 94.7313 45.3276 95.1804 45.5345C95.5664 45.7198 95.8839 46.0222 96.0876 46.3986C96.3051 46.8216 96.4119 47.2927 96.3978 47.7681V49.6662C96.4118 50.1319 96.3034 50.5931 96.0833 51.0039C95.8759 51.3752 95.5571 51.6722 95.1719 51.8531C94.7254 52.0582 94.2376 52.1577 93.7464 52.144H91.6983L91.7026 50.2947Z" fill="#1A4E87"/>
<path d="M99.2722 45.2383H100.623L103.315 56.5125H101.403L99.9457 49.1238L98.4883 56.5125H96.5762L99.2722 45.2383ZM98.4224 52.9604H101.494V54.7587H98.4118L98.4224 52.9604Z" fill="#1A4E87"/>
<path d="M105.376 56.3106C104.946 56.1163 104.587 55.7937 104.348 55.387C104.102 54.9418 103.98 54.4388 103.995 53.9305V53.387H105.927V53.8604C105.92 53.9884 105.941 54.1163 105.99 54.2349C106.038 54.3535 106.112 54.4599 106.207 54.5462C106.431 54.7225 106.713 54.8095 106.997 54.7904C107.133 54.7987 107.268 54.7784 107.395 54.7308C107.522 54.6833 107.638 54.6095 107.735 54.5144C107.919 54.3048 108.014 54.031 107.998 53.7522V52.5419C108.015 52.2823 107.933 52.026 107.769 51.8243C107.686 51.7394 107.587 51.6732 107.477 51.6299C107.367 51.5867 107.249 51.5676 107.131 51.5738H105.735V49.7287H107.131C107.224 49.7339 107.318 49.7199 107.405 49.6878C107.493 49.6557 107.573 49.606 107.641 49.5418C107.705 49.469 107.754 49.3843 107.785 49.2924C107.816 49.2006 107.828 49.1035 107.822 49.0068V47.8051C107.83 47.6921 107.815 47.5787 107.779 47.4715C107.742 47.3643 107.684 47.2655 107.609 47.1808C107.528 47.1055 107.431 47.0478 107.326 47.0113C107.222 46.9748 107.11 46.9602 106.999 46.9685C106.882 46.961 106.764 46.977 106.653 47.0157C106.541 47.0543 106.439 47.1148 106.351 47.1936C106.272 47.2785 106.211 47.3789 106.172 47.4885C106.133 47.598 106.116 47.7145 106.124 47.8305V48.3826H104.193V47.839C104.178 47.3309 104.295 46.8277 104.533 46.3783C104.759 45.9742 105.105 45.65 105.523 45.4504C106.01 45.228 106.542 45.1198 107.078 45.1341C107.578 45.1199 108.073 45.2286 108.521 45.4504C108.914 45.658 109.234 45.982 109.436 46.3783C109.66 46.8321 109.769 47.3335 109.755 47.839V49.0323C109.75 49.3245 109.669 49.6104 109.521 49.8624C109.351 50.159 109.128 50.4218 108.863 50.6374C109.201 50.7858 109.48 51.0419 109.657 51.3657C109.853 51.7302 109.95 52.1392 109.94 52.5526V53.7628C109.955 54.3013 109.837 54.8351 109.596 55.317C109.372 55.7417 109.02 56.0855 108.591 56.3C108.098 56.537 107.555 56.6527 107.008 56.6376C106.447 56.6503 105.889 56.5387 105.376 56.3106Z" fill="#1A4E87"/>
<path d="M112.217 56.3101C111.801 56.1172 111.455 55.8005 111.227 55.4035C110.989 54.965 110.871 54.4712 110.885 53.9724V47.7705C110.871 47.2711 110.989 46.7768 111.227 46.3374C111.455 45.9409 111.801 45.6254 112.217 45.435C112.71 45.2303 113.238 45.125 113.772 45.125C114.306 45.125 114.834 45.2303 115.327 45.435C115.743 45.6272 116.088 45.9441 116.315 46.3416C116.552 46.7798 116.67 47.2725 116.657 47.7705V53.9724C116.672 54.4712 116.554 54.965 116.315 55.4035C116.087 55.8 115.742 56.1165 115.327 56.3101C114.835 56.5175 114.306 56.6243 113.772 56.6243C113.238 56.6243 112.709 56.5175 112.217 56.3101ZM114.28 54.586C114.419 54.5104 114.532 54.3941 114.603 54.2527C114.678 54.0876 114.715 53.9076 114.711 53.7261V47.9935C114.715 47.8141 114.678 47.6363 114.603 47.4733C114.532 47.3319 114.419 47.2156 114.28 47.1399C114.123 47.0602 113.948 47.0208 113.772 47.0253C113.597 47.0202 113.423 47.0596 113.267 47.1399C113.13 47.2165 113.019 47.3327 112.95 47.4733C112.874 47.636 112.837 47.814 112.842 47.9935V53.7261C112.836 53.9077 112.873 54.0879 112.95 54.2527C113.019 54.3932 113.13 54.5094 113.267 54.586C113.423 54.667 113.596 54.7072 113.772 54.7028C113.949 54.7066 114.123 54.6665 114.28 54.586Z" fill="#1A4E87"/>
<path d="M117.884 45.2383H119.823V56.5125H117.892L117.884 45.2383ZM118.984 54.7057H120.684C120.887 54.7182 121.088 54.6495 121.241 54.5146C121.309 54.4447 121.361 54.3614 121.395 54.27C121.429 54.1786 121.444 54.0811 121.438 53.9838V52.472C121.443 52.309 121.412 52.1468 121.349 51.9964C121.294 51.8696 121.2 51.7633 121.081 51.6928C120.951 51.6206 120.805 51.5847 120.656 51.5888H118.995V49.8053H120.61C120.708 49.8112 120.807 49.7952 120.899 49.7585C120.991 49.7218 121.073 49.6653 121.141 49.593C121.278 49.4168 121.346 49.1961 121.332 48.973V47.7628C121.338 47.666 121.324 47.569 121.291 47.4777C121.258 47.3865 121.207 47.3029 121.141 47.232C121.071 47.1667 120.989 47.1164 120.899 47.0839C120.809 47.0514 120.713 47.0375 120.618 47.043H118.995V45.2425H120.811C121.261 45.2306 121.707 45.3237 122.114 45.5143C122.467 45.6854 122.756 45.9643 122.94 46.3105C123.137 46.6974 123.234 47.1272 123.223 47.5611V48.7692C123.225 49.0867 123.152 49.4003 123.01 49.6843C122.881 49.9419 122.687 50.1614 122.447 50.3212C122.18 50.4977 121.876 50.6129 121.559 50.6588C121.902 50.6973 122.232 50.8111 122.526 50.9922C122.787 51.1562 122.998 51.3881 123.138 51.6631C123.285 51.9627 123.358 52.2933 123.35 52.627V54.1621C123.363 54.6034 123.267 55.041 123.07 55.436C122.889 55.7835 122.603 56.0646 122.252 56.2386C121.849 56.4315 121.406 56.5261 120.96 56.5146H118.974L118.984 54.7057Z" fill="#1A4E87"/>
<path d="M126.462 45.2383H127.813L130.505 56.5125H128.593L127.133 49.1238L125.676 56.5125H123.764L126.462 45.2383ZM125.612 52.9604H128.684V54.7587H125.601L125.612 52.9604Z" fill="#1A4E87"/>
<path d="M131.342 45.2383H133.267V56.5125H131.342V45.2383ZM132.257 50.0537H136.035V51.8606H132.257V50.0537ZM134.786 45.2383H136.71V56.5125H134.786V45.2383Z" fill="#1A4E87"/>
<path d="M142.047 56.504V48.835L142.217 49.0685L139.643 56.5104H138.094V45.2383H139.846V52.9753L139.668 52.7438L142.266 45.2383H143.802V56.504H142.047Z" fill="#1A4E87"/>
<path d="M145.182 45.2383H147.106V56.5125H145.182V45.2383ZM146.031 45.2383H150.204V47.1152H146.036L146.031 45.2383ZM146.031 49.9752H149.8V51.8436H146.036L146.031 49.9752ZM146.031 54.6356H150.204V56.5125H146.036L146.031 54.6356Z" fill="#1A4E87"/>
<path d="M156.818 45.2383H158.617V56.5125H156.903V48.6418L157.019 49.1386L155.384 54.5188H154.421L152.785 49.2936L152.94 48.6418V56.5125H151.186V45.2383H153.032L154.901 51.3637L156.818 45.2383Z" fill="#1A4E87"/>
</svg>
