<svg width="309" height="255" viewBox="0 0 309 255" fill="none" xmlns="http://www.w3.org/2000/svg">
<path d="M140.873 49.0321L110.145 70.6052C110.145 70.6052 86.1465 35.0294 62.626 42.4264C87.9849 33.0542 112.727 64.4705 112.727 64.4705L136.232 47.1148L133.499 44.382L135.202 42.6795C138.684 45.2089 140.873 49.0321 140.873 49.0321Z" fill="#F1F1F1"/>
<path d="M106.332 32.197L97.751 40.3683C96.1807 39.4791 94.6788 38.6582 93.0404 37.837L102.779 28.5079L106.332 32.197Z" fill="#F1F1F1"/>
<path d="M118.066 33.4437L105.467 45.4965C104.101 44.5394 102.667 43.5139 101.165 42.5566L114.445 29.8227L118.066 33.4437Z" fill="#F1F1F1"/>
<path d="M130.345 34.2819L112.706 51.2378C111.613 50.2811 110.247 49.1875 108.745 47.9573L126.792 30.5929L130.345 34.2819Z" fill="#F1F1F1"/>
<path d="M140.442 35.3895L112.312 60.5136C112.312 60.5136 86.8218 30.8015 63.9881 41.0644C88.3189 28.6212 113.939 54.241 113.939 54.241L134.644 35.0391C134.644 35.0391 110.051 11.8083 89.597 17.505C89.5289 17.5731 89.3925 17.5729 89.2563 17.7091C89.7332 17.3688 89.9375 17.1645 90.1421 17.0967C113.866 8.81322 140.442 35.3895 140.442 35.3895Z" fill="#F1F1F1"/>
<path d="M140.873 219.032L110.145 240.605C110.145 240.605 86.1465 205.029 62.626 212.426C87.9849 203.054 112.727 234.47 112.727 234.47L136.232 217.115L133.499 214.382L135.202 212.68C138.684 215.209 140.873 219.032 140.873 219.032Z" fill="#F1F1F1"/>
<path d="M106.332 202.197L97.751 210.368C96.1807 209.479 94.6788 208.658 93.0404 207.837L102.779 198.508L106.332 202.197Z" fill="#F1F1F1"/>
<path d="M118.066 203.444L105.467 215.497C104.101 214.539 102.667 213.514 101.165 212.557L114.445 199.823L118.066 203.444Z" fill="#F1F1F1"/>
<path d="M130.345 204.282L112.706 221.238C111.613 220.281 110.247 219.188 108.745 217.957L126.792 200.593L130.345 204.282Z" fill="#F1F1F1"/>
<path d="M140.442 205.389L112.312 230.514C112.312 230.514 86.8218 200.801 63.9881 211.064C88.3189 198.621 113.939 224.241 113.939 224.241L134.644 205.039C134.644 205.039 110.051 181.808 89.597 187.505C89.5289 187.573 89.3925 187.573 89.2563 187.709C89.7332 187.369 89.9375 187.165 90.1421 187.097C113.866 178.813 140.442 205.389 140.442 205.389Z" fill="#F1F1F1"/>
<path d="M78.8734 134.032L48.1455 155.605C48.1455 155.605 24.1467 120.029 0.626267 127.426C25.9852 118.054 50.7276 149.47 50.7276 149.47L74.232 132.115L71.4992 129.382L73.2017 127.679C76.6845 130.209 78.8734 134.032 78.8734 134.032Z" fill="#F1F1F1"/>
<path d="M44.3325 117.197L35.7512 125.368C34.181 124.479 32.679 123.658 31.0407 122.837L40.7797 113.508L44.3325 117.197Z" fill="#F1F1F1"/>
<path d="M56.0663 118.444L43.4669 130.496C42.1012 129.539 40.6671 128.514 39.165 127.557L52.4454 114.823L56.0663 118.444Z" fill="#F1F1F1"/>
<path d="M68.3454 119.282L50.7063 136.238C49.6134 135.281 48.2475 134.187 46.7449 132.957L64.7925 115.593L68.3454 119.282Z" fill="#F1F1F1"/>
<path d="M78.4422 120.389L50.312 145.514C50.312 145.514 24.8221 115.801 1.98833 126.064C26.3192 113.621 51.939 139.241 51.939 139.241L72.6439 120.039C72.6439 120.039 48.051 96.8082 27.5973 102.505C27.5292 102.573 27.3928 102.573 27.2566 102.709C27.7335 102.369 27.9378 102.164 28.1423 102.097C51.8659 93.8132 78.4422 120.389 78.4422 120.389Z" fill="#F1F1F1"/>
<path d="M230.091 38.9319L260.818 17.3589C260.818 17.3589 284.817 52.9347 308.338 45.5376C282.979 54.9098 258.236 23.4936 258.236 23.4936L234.732 40.8493L237.465 43.582L235.762 45.2845C232.279 42.7552 230.091 38.9319 230.091 38.9319Z" fill="#F1F1F1"/>
<path d="M264.631 55.767L273.213 47.5957C274.783 48.4849 276.285 49.3058 277.923 50.127L268.184 59.4561L264.631 55.767Z" fill="#F1F1F1"/>
<path d="M252.898 54.5204L265.497 42.4675C266.863 43.4247 268.297 44.4501 269.799 45.4075L256.518 58.1413L252.898 54.5204Z" fill="#F1F1F1"/>
<path d="M240.619 53.6821L258.258 36.7263C259.35 37.683 260.716 38.7765 262.219 40.0067L244.171 57.3712L240.619 53.6821Z" fill="#F1F1F1"/>
<path d="M230.522 52.5746L258.652 27.4504C258.652 27.4504 284.142 57.1626 306.976 46.8996C282.645 59.3429 257.025 33.7231 257.025 33.7231L236.32 52.9249C236.32 52.9249 260.913 76.1557 281.367 70.459C281.435 70.3909 281.571 70.3911 281.707 70.2549C281.23 70.5952 281.026 70.7995 280.822 70.8674C257.098 79.1508 230.522 52.5746 230.522 52.5746Z" fill="#F1F1F1"/>
<path d="M230.091 204.932L260.818 183.359C260.818 183.359 284.817 218.935 308.338 211.538C282.979 220.91 258.236 189.494 258.236 189.494L234.732 206.849L237.465 209.582L235.762 211.285C232.279 208.755 230.091 204.932 230.091 204.932Z" fill="#F1F1F1"/>
<path d="M264.631 221.767L273.213 213.596C274.783 214.485 276.285 215.306 277.923 216.127L268.184 225.456L264.631 221.767Z" fill="#F1F1F1"/>
<path d="M252.898 220.52L265.497 208.468C266.863 209.425 268.297 210.45 269.799 211.407L256.518 224.141L252.898 220.52Z" fill="#F1F1F1"/>
<path d="M240.619 219.682L258.258 202.726C259.35 203.683 260.716 204.777 262.219 206.007L244.171 223.371L240.619 219.682Z" fill="#F1F1F1"/>
<path d="M230.522 218.575L258.652 193.45C258.652 193.45 284.142 223.163 306.976 212.9C282.645 225.343 257.025 199.723 257.025 199.723L236.32 218.925C236.32 218.925 260.913 242.156 281.367 236.459C281.435 236.391 281.571 236.391 281.707 236.255C281.23 236.595 281.026 236.8 280.822 236.867C257.098 245.151 230.522 218.575 230.522 218.575Z" fill="#F1F1F1"/>
<path d="M168.091 120.821L198.818 99.2476C198.818 99.2476 222.817 134.823 246.338 127.426C220.979 136.799 196.236 105.382 196.236 105.382L172.732 122.738L175.465 125.471L173.762 127.173C170.279 124.644 168.091 120.821 168.091 120.821Z" fill="#F1F1F1"/>
<path d="M202.631 137.656L211.213 129.484C212.783 130.374 214.285 131.195 215.923 132.016L206.184 141.345L202.631 137.656Z" fill="#F1F1F1"/>
<path d="M190.898 136.409L203.497 124.356C204.863 125.313 206.297 126.339 207.799 127.296L194.518 140.03L190.898 136.409Z" fill="#F1F1F1"/>
<path d="M178.619 135.571L196.258 118.615C197.35 119.572 198.716 120.665 200.219 121.895L182.171 139.26L178.619 135.571Z" fill="#F1F1F1"/>
<path d="M168.522 134.463L196.652 109.339C196.652 109.339 222.142 139.051 244.976 128.788C220.645 141.232 195.025 115.612 195.025 115.612L174.32 134.814C174.32 134.814 198.913 158.044 219.367 152.348C219.435 152.28 219.571 152.28 219.707 152.144C219.23 152.484 219.026 152.688 218.822 152.756C195.098 161.04 168.522 134.463 168.522 134.463Z" fill="#F1F1F1"/>
</svg>
