<svg width="60" height="60" viewBox="0 0 60 60" fill="none" xmlns="http://www.w3.org/2000/svg">
<g clip-path="url(#clip0)">
<path d="M38.7891 41.8063L54.4043 31.5106L38.7891 21.2148V41.8063ZM42.3047 27.7438L48.0176 31.5106L42.3047 35.2773V27.7438Z" fill="#999999"/>
<path d="M30.3348 12.0443C29.7701 11.7722 21.5975 5.14453 8.78906 5.14453H7.03125V11.0964C3.30234 11.6517 0.808711 12.3746 0 12.5611V54.8568C1.22941 54.6906 13.5798 50.3125 29.5737 54.3107L30 54.4173L30.4263 54.3107C46.4385 50.3077 58.7651 54.6898 60 54.8568V12.5611C59.1855 12.4528 46.4527 8.24063 30.3348 12.0443ZM3.51562 50.3978V15.3234C4.67836 15.0629 5.85316 14.839 7.03125 14.6523V47.332H8.78906C12.5788 47.332 16.376 47.9971 19.9461 49.2537C14.4525 48.8828 8.91129 49.2635 3.51562 50.3978ZM28.2422 49.3444C22.9798 46.0794 16.7926 44.1638 10.5469 43.8593V8.7075C21.129 9.27668 27.7011 14.6052 28.2422 14.8744V49.3444ZM56.4844 50.3978C48.3521 48.6882 39.8898 48.6882 31.7578 50.3978V15.3234C39.8755 13.5042 48.3666 13.5042 56.4844 15.3234V50.3978Z" fill="#999999"/>
</g>
<defs>
<clipPath id="clip0">
<rect width="60" height="60" fill="white"/>
</clipPath>
</defs>
</svg>
