<svg xmlns="http://www.w3.org/2000/svg" viewBox="0 0 1126.53 329.69"><defs><style>.cls-1{fill:#ff6c6c;}.cls-2{fill:#1a4e87;}</style></defs><title>Ресурс 8</title><g id="Слой_2" data-name="Слой 2"><g id="Слой_1-2" data-name="Слой 1"><path class="cls-1" d="M328.67,51.18,293.36,254.43S62.62,209.72,0,329.69C61.84,194.92,279.26,220.93,279.26,220.93l23.67-158.5H281.52V48.64C305.19,45.19,328.67,51.18,328.67,51.18Z"/><path class="cls-1" d="M129.4,120l-1.27,65.26c-9.26,2.42-18.68,5.14-28.13,8.26l1.48-73.93Z"/><path class="cls-1" d="M180,79.45,178.17,175c-8.91,1.39-18.33,3.08-28,5.13l2-101.1Z"/><path class="cls-1" d="M230.7,34.78,228,169.35c-7.84.54-17.32,1.38-28,2.64l2.72-137.63Z"/><path class="cls-2" d="M274.22,0,262.36,206.91S48.41,190.42,0,319C46,175.87,244.58,175.87,244.58,175.87l5.93-155.18S65.22,25.86,8.33,127.71a8.58,8.58,0,0,0-.64,2.19,24.87,24.87,0,0,1,1.2-5.76C68.19,0,274.22,0,274.22,0Z"/><path class="cls-2" d="M362.51,58.52h9.06v53.09h-9.06Zm4.64,44.4h8.18a4.31,4.31,0,0,0,2.39-.64,4.23,4.23,0,0,0,1.56-1.84,7.07,7.07,0,0,0,.54-2.89V93.32a7.52,7.52,0,0,0-.53-3,4.08,4.08,0,0,0-1.55-1.9,4.33,4.33,0,0,0-2.41-.65h-8.18V79.08H377a13.36,13.36,0,0,1,6.43,1.44,9.61,9.61,0,0,1,4.07,4.18,14.19,14.19,0,0,1,1.41,6.57v8.4a13.67,13.67,0,0,1-1.41,6.44,9.45,9.45,0,0,1-4.09,4.09,13.6,13.6,0,0,1-6.41,1.41h-9.82Zm.81-44.4H386.5v8.69H368Z"/><path class="cls-2" d="M413.09,111.57V75.42l.8,1.1-12.12,35.05h-7.31v-53h8.26V95l-.84-1.1,12.23-35.34h7.23v53Z"/><path class="cls-2" d="M427.11,103a3.65,3.65,0,0,0,1.81-.4A2.46,2.46,0,0,0,430,101.4a5.12,5.12,0,0,0,.35-2.06V58.52h9.06V99.78a15.25,15.25,0,0,1-1.26,6.63,8.26,8.26,0,0,1-3.84,3.9,14.24,14.24,0,0,1-6.48,1.3h-.69Zm9.27-44.51h13.77v8.69H436.38Zm8.8,0h9.06v53.09h-9.06Z"/><path class="cls-2" d="M479.36,111.57V75.42l.8,1.1L468,111.57h-7.3v-53H469V95l-.84-1.1,12.23-35.34h7.23v53Z"/><path class="cls-2" d="M520.62,58.52h8.47v53.09H521V74.55l.55,2.33-7.7,25.35h-4.53l-7.71-24.61.73-3.07v37.06h-8.25V58.52h8.69l8.8,28.84Z"/><path class="cls-2" d="M550.64,58.52h9.05v53.09h-9.05Zm4.63,44.4h8.18a4.31,4.31,0,0,0,2.39-.64,4.14,4.14,0,0,0,1.55-1.84,6.9,6.9,0,0,0,.55-2.89V93.32a7.52,7.52,0,0,0-.53-3,4.08,4.08,0,0,0-1.55-1.9,4.33,4.33,0,0,0-2.41-.65h-8.18V79.08h9.82a13.36,13.36,0,0,1,6.43,1.44,9.61,9.61,0,0,1,4.07,4.18A14.19,14.19,0,0,1,577,91.27v8.4a13.67,13.67,0,0,1-1.41,6.44,9.45,9.45,0,0,1-4.09,4.09,13.6,13.6,0,0,1-6.41,1.41h-9.82Zm.81-44.4h18.54v8.69H556.08Z"/><path class="cls-2" d="M582.58,58.52h9.06v53.09h-9.06Zm4,0h19.57v8.83H586.6Zm0,22.31h17.75v8.8H586.6Zm0,21.94h19.57v8.84H586.6Z"/><path class="cls-2" d="M610.85,58.52h9v53.09h-9Zm4.23,23.81h9.39a3.28,3.28,0,0,0,3.14-2A5.78,5.78,0,0,0,628,78V71.74a6.44,6.44,0,0,0-.42-2.45,3.25,3.25,0,0,0-1.22-1.55,3.46,3.46,0,0,0-1.93-.53h-9.39V58.52h9.64a15.1,15.1,0,0,1,6.76,1.39A9.56,9.56,0,0,1,635.75,64a13.35,13.35,0,0,1,1.46,6.44v9a12.55,12.55,0,0,1-1.48,6.3,9.74,9.74,0,0,1-4.29,4A15.26,15.26,0,0,1,624.72,91h-9.64Z"/><path class="cls-2" d="M660.32,91.27v20.34h-9.05V91.27l-9.93-32.75h9.42l5,22,4.75-22h9.42Z"/><path class="cls-2" d="M688.8,91.27v20.34h-9V91.27l-9.93-32.75h9.42l5,22,4.75-22h9.42Z"/><path class="cls-2" d="M700.85,58.52h9.06v53.09h-9.06Zm4.31,22.67h17.78V89.7H705.16Zm11.9-22.67h9.06v53.09h-9.06Z"/><path class="cls-2" d="M748.69,91.27v20.34h-9.06V91.27L729.7,58.52h9.42l5,22,4.74-22h9.42Z"/><path class="cls-2" d="M362.51,135.79h9.06v53.09h-9.06Zm4.64,44.4h8.18a4.31,4.31,0,0,0,2.39-.64,4.17,4.17,0,0,0,1.56-1.84,7,7,0,0,0,.54-2.88v-4.24a7.44,7.44,0,0,0-.53-3,4,4,0,0,0-1.55-1.9,4.33,4.33,0,0,0-2.41-.66h-8.18v-8.69H377a13.36,13.36,0,0,1,6.43,1.44,9.67,9.67,0,0,1,4.07,4.18,14.24,14.24,0,0,1,1.41,6.58v8.39a13.71,13.71,0,0,1-1.41,6.45,9.5,9.5,0,0,1-4.09,4.09,13.72,13.72,0,0,1-6.41,1.4h-9.82Zm.81-44.4H386.5v8.69H368Z"/><path class="cls-2" d="M403.48,135.79h6.36l12.67,53.09h-9l-6.86-34.79-6.86,34.79h-9Zm-4.05,36.37h14.46v8.47H399.43Z"/><path class="cls-2" d="M426.45,135.79h8.29v53.09h-8.29Zm5,44.4h23.59v8.69H431.49Zm6.9-44.4h8.29v53.09h-8.29Zm12.34,0H459v53.09h-8.29Z"/><path class="cls-2" d="M465.52,135.79h9.06v53.09h-9.06Zm4,22.38h14v8.7h-14Zm9.27,7.2,7.71-5.22,9,28.73h-9.57Zm.22-5.44L484,135.79h9.31l-7.45,30.42Z"/><path class="cls-2" d="M508.1,135.79h6.35l12.67,53.09h-9l-6.87-34.79-6.86,34.79h-9ZM504,172.16H518.5v8.47H504Z"/><path class="cls-2" d="M531.06,135.79h9.06v53.09h-9.06Zm4.24,23.81h9.38a3.46,3.46,0,0,0,1.9-.51,3.25,3.25,0,0,0,1.24-1.5,5.78,5.78,0,0,0,.44-2.34V149a6.47,6.47,0,0,0-.42-2.45,3.31,3.31,0,0,0-1.22-1.55,3.48,3.48,0,0,0-1.94-.53H535.3v-8.69h9.64a15,15,0,0,1,6.75,1.39,9.53,9.53,0,0,1,4.28,4.07,13.36,13.36,0,0,1,1.46,6.45v8.94a12.65,12.65,0,0,1-1.48,6.3,9.68,9.68,0,0,1-4.29,4,15.29,15.29,0,0,1-6.72,1.37H535.3Z"/><path class="cls-2" d="M564.66,135.79h9.53l7,39.51-5.77,5.95ZM584.59,180a12,12,0,0,1-2.21,5.08,10.5,10.5,0,0,1-4.14,3.23,14.08,14.08,0,0,1-5.73,1.11h-3.73v-9.09h3.73a4.91,4.91,0,0,0,2.61-.71,5.74,5.74,0,0,0,1.91-2,8.92,8.92,0,0,0,1.06-3.16l6.36-38.63h9.12Z"/><path class="cls-2" d="M597.7,135.79h9.53l7,39.51-5.77,5.95ZM617.64,180a12.15,12.15,0,0,1-2.21,5.08,10.6,10.6,0,0,1-4.15,3.23,14.08,14.08,0,0,1-5.73,1.11h-3.72v-9.09h3.72a4.89,4.89,0,0,0,2.61-.71,5.68,5.68,0,0,0,1.92-2,9.34,9.34,0,0,0,1.06-3.16l6.35-38.63h9.13Z"/><path class="cls-2" d="M629.83,135.79h9.06v53.09h-9.06Zm4.31,22.68h17.78V167H634.14Zm11.91-22.68h9.05v53.09h-9.05Z"/><path class="cls-2" d="M660.32,135.79h9.53l7,39.51-5.77,5.95ZM680.26,180a12.15,12.15,0,0,1-2.21,5.08,10.5,10.5,0,0,1-4.14,3.23,14.13,14.13,0,0,1-5.74,1.11h-3.72v-9.09h3.72a4.86,4.86,0,0,0,2.61-.71,5.68,5.68,0,0,0,1.92-2,9.34,9.34,0,0,0,1.06-3.16l6.35-38.63h9.13Z"/><path class="cls-2" d="M692.45,135.79h9.06v53.09h-9.06Zm4.31,22.68h17.79V167H696.76Zm11.91-22.68h9.05v53.09h-9.05Z"/><path class="cls-2" d="M765.77,135.79h8.47v53.09h-8.06V151.82l.54,2.34L759,179.5h-4.53l-7.7-24.61.73-3.07v37.06h-8.26V135.79H748l8.8,28.85Z"/><path class="cls-2" d="M790.13,135.79h6.35l12.67,53.09h-9l-6.87-34.79-6.86,34.79h-9Zm-4.06,36.37h14.46v8.47H786.07Z"/><path class="cls-2" d="M823.94,135.79h6.35L843,188.88h-9l-6.86-34.79-6.87,34.79h-9Zm-4.05,36.37h14.46v8.47H819.89Z"/><path class="cls-2" d="M847.64,180.3a3.65,3.65,0,0,0,1.81-.4,2.48,2.48,0,0,0,1-1.22,5.39,5.39,0,0,0,.35-2.07V135.79h9.06v41.26a15.25,15.25,0,0,1-1.26,6.63,8.32,8.32,0,0,1-3.84,3.91,14.38,14.38,0,0,1-6.48,1.29h-.69Zm9.27-44.51h13.77v8.69H856.91Zm8.8,0h9.06v53.09h-9.06Z"/><path class="cls-2" d="M881.27,135.79h9.05v53.09h-9.05Zm4.63,44.4h6.9a4.35,4.35,0,0,0,2.4-.64,4.15,4.15,0,0,0,1.55-1.84,7,7,0,0,0,.55-2.88v-4.24a7.62,7.62,0,0,0-.53-3,4.09,4.09,0,0,0-1.55-1.9,4.39,4.39,0,0,0-2.42-.66h-6.9v-8.69h8.55a13.3,13.3,0,0,1,6.42,1.44A9.69,9.69,0,0,1,905,162a14.36,14.36,0,0,1,1.4,6.58v8.39a13.83,13.83,0,0,1-1.4,6.45,9.5,9.5,0,0,1-4.09,4.09,13.75,13.75,0,0,1-6.41,1.4H885.9Zm31.81,8.69h-9.06V135.79h9.06Z"/><path class="cls-2" d="M950,135.79h8.47v53.09h-8.07V151.82l.54,2.34-7.7,25.34H938.7L931,154.89l.73-3.07v37.06h-8.25V135.79h8.69l8.8,28.85Z"/><path class="cls-2" d="M974.34,135.79h6.35l12.67,53.09h-9l-6.86-34.79-6.87,34.79h-9Zm-4.05,36.37h14.46v8.47H970.29Z"/><path class="cls-2" d="M992.2,135.79h26.58v8.69H992.2Zm8.76,4.46h9v48.63h-9Z"/><path class="cls-2" d="M1023.45,135.79H1050v8.69h-26.58Zm8.77,4.46h9v48.63h-9Z"/><path class="cls-2" d="M1054.34,135.79h9.06v53.09h-9.06Zm4.64,44.4h6.9a4.33,4.33,0,0,0,2.39-.64,4.09,4.09,0,0,0,1.55-1.84,6.82,6.82,0,0,0,.55-2.88v-4.24a7.62,7.62,0,0,0-.53-3,4,4,0,0,0-1.55-1.9,4.35,4.35,0,0,0-2.41-.66H1059v-8.69h8.54a13.36,13.36,0,0,1,6.43,1.44A9.67,9.67,0,0,1,1078,162a14.24,14.24,0,0,1,1.41,6.58v8.39a13.71,13.71,0,0,1-1.41,6.45,9.5,9.5,0,0,1-4.09,4.09,13.72,13.72,0,0,1-6.41,1.4H1059Zm31.8,8.69h-9V135.79h9Z"/><path class="cls-2" d="M1096.55,135.79h9.06v53.09h-9.06Zm4,22.38h14.06v8.7h-14.06Zm9.27,7.2,7.71-5.22,9,28.73H1117Zm.22-5.44,4.93-24.14h9.31l-7.45,30.42Z"/><path class="cls-2" d="M368.39,265.11A10.47,10.47,0,0,1,364,260.5a16.21,16.21,0,0,1-1.52-7.31V226a16.24,16.24,0,0,1,1.52-7.31,10.54,10.54,0,0,1,4.36-4.62,15.75,15.75,0,0,1,13.75,0,10.37,10.37,0,0,1,4.36,4.64,16.42,16.42,0,0,1,1.5,7.32v4.28h-9.16v-4.28a6.27,6.27,0,0,0-.4-2.33,3.16,3.16,0,0,0-1.23-1.52,3.56,3.56,0,0,0-1.95-.53,3.46,3.46,0,0,0-1.9.51,3.16,3.16,0,0,0-1.22,1.5,6,6,0,0,0-.42,2.34v27.16a5.79,5.79,0,0,0,.42,2.32,3.15,3.15,0,0,0,1.22,1.48,3.46,3.46,0,0,0,1.9.51,3.61,3.61,0,0,0,2-.51,3.08,3.08,0,0,0,1.21-1.48,6.27,6.27,0,0,0,.4-2.35v-4.28H388v4.28a16.45,16.45,0,0,1-1.5,7.32,10.3,10.3,0,0,1-4.36,4.63,15.66,15.66,0,0,1-13.75,0Z"/><path class="cls-2" d="M411.66,266.12V230l.81,1.1-12.13,35.05H393V213.06h8.25V249.5l-.84-1.09,12.23-35.35h7.23v53.06Z"/><path class="cls-2" d="M432.29,265.11a10.47,10.47,0,0,1-4.36-4.61,16.21,16.21,0,0,1-1.52-7.31V226a16.24,16.24,0,0,1,1.52-7.31,10.54,10.54,0,0,1,4.36-4.62,15.75,15.75,0,0,1,13.75,0,10.37,10.37,0,0,1,4.36,4.64,16.42,16.42,0,0,1,1.5,7.32v4.28h-9.16v-4.28a6.07,6.07,0,0,0-.41-2.33,3.09,3.09,0,0,0-1.22-1.52,3.56,3.56,0,0,0-1.95-.53,3.46,3.46,0,0,0-1.9.51,3.16,3.16,0,0,0-1.22,1.5,6,6,0,0,0-.42,2.34v27.16a5.79,5.79,0,0,0,.42,2.32,3.15,3.15,0,0,0,1.22,1.48,3.46,3.46,0,0,0,1.9.51,3.61,3.61,0,0,0,2-.51,3.06,3.06,0,0,0,1.2-1.48,6.07,6.07,0,0,0,.41-2.35v-4.28h9.16v4.28a16.45,16.45,0,0,1-1.5,7.32,10.3,10.3,0,0,1-4.36,4.63,15.66,15.66,0,0,1-13.75,0Z"/><path class="cls-2" d="M454,213.06H480.6v8.69H454Zm8.76,4.46h9.06v48.64h-9.06Z"/><path class="cls-2" d="M484.91,213.06h9v53.1h-9Zm4,0H508.5v8.84H488.93Zm0,22.31h17.74v8.8H488.93Zm0,21.95H508.5v8.84H488.93Z"/><path class="cls-2" d="M539.68,213.06h8.47v53.1h-8.07V229.09l.55,2.34-7.7,25.34H528.4l-7.71-24.61.73-3.07v37.07h-8.25v-53.1h8.69l8.8,28.85Z"/><path class="cls-2" d="M564,213.06h6.35l12.67,53.1h-9l-6.87-34.8-6.86,34.8h-9ZM560,249.43h14.46v8.47H560Z"/><path class="cls-2" d="M591.42,265.11a10.47,10.47,0,0,1-4.36-4.61,16.21,16.21,0,0,1-1.52-7.31V226a16.24,16.24,0,0,1,1.52-7.31,10.54,10.54,0,0,1,4.36-4.62,15.75,15.75,0,0,1,13.75,0,10.43,10.43,0,0,1,4.36,4.64,16.42,16.42,0,0,1,1.5,7.32v4.28h-9.17v-4.28a6.07,6.07,0,0,0-.4-2.33,3.15,3.15,0,0,0-1.22-1.52,3.56,3.56,0,0,0-2-.53,3.44,3.44,0,0,0-1.9.51,3.18,3.18,0,0,0-1.23,1.5,6,6,0,0,0-.42,2.34v27.16a5.79,5.79,0,0,0,.42,2.32,3.17,3.17,0,0,0,1.23,1.48,3.44,3.44,0,0,0,1.9.51,3.63,3.63,0,0,0,2-.51,3.12,3.12,0,0,0,1.2-1.48,6.08,6.08,0,0,0,.4-2.35v-4.28H611v4.28a16.45,16.45,0,0,1-1.5,7.32,10.35,10.35,0,0,1-4.36,4.63,15.66,15.66,0,0,1-13.75,0Z"/><path class="cls-2" d="M616.07,213.06h9v53.1h-9Zm4.63,44.4h6.91a4.42,4.42,0,0,0,2.39-.63,4.18,4.18,0,0,0,1.55-1.85,7,7,0,0,0,.55-2.88v-4.24a7.65,7.65,0,0,0-.53-3A4.14,4.14,0,0,0,630,243a4.38,4.38,0,0,0-2.41-.66H620.7v-8.69h8.55a13.36,13.36,0,0,1,6.43,1.44,9.78,9.78,0,0,1,4.07,4.18,14.36,14.36,0,0,1,1.4,6.58v8.39a13.83,13.83,0,0,1-1.4,6.45,9.5,9.5,0,0,1-4.09,4.09,13.63,13.63,0,0,1-6.41,1.41H620.7Zm31.81,8.7h-9.06v-53.1h9.06Z"/></g></g></svg>