<svg width="250" height="91" viewBox="0 0 250 91" fill="none" xmlns="http://www.w3.org/2000/svg">
<path d="M90.4132 14.0703L80.6998 69.9472C80.6998 69.9472 17.226 57.6557 0 90.6375C17.0114 53.5869 76.8211 60.7375 76.8211 60.7375L83.3324 17.1631H77.4428V13.372C83.9541 12.4236 90.4132 14.0703 90.4132 14.0703Z" fill="#FF6C6C"/>
<path d="M35.5964 32.99L35.247 50.9311C32.6997 51.5964 30.1084 52.3441 27.5088 53.2019L27.9159 32.8773L35.5964 32.99Z" fill="#FF6C6C"/>
<path d="M49.5154 21.8421L49.012 48.1105C46.561 48.4926 43.9697 48.9572 41.3096 49.5208L41.8597 21.7267L49.5154 21.8421Z" fill="#FF6C6C"/>
<path d="M63.4628 9.56157L62.72 46.5572C60.5634 46.7056 57.9555 46.9366 55.0176 47.283L55.7658 9.44611L63.4628 9.56157Z" fill="#FF6C6C"/>
<path d="M75.4346 0L72.1721 56.8831C72.1721 56.8831 13.317 52.3497 0 87.6986C12.654 48.3497 67.281 48.3497 67.281 48.3497L68.9123 5.68804C68.9123 5.68804 17.9412 7.10936 2.29148 35.1097C2.20624 35.3016 2.14703 35.5041 2.11543 35.7117C2.16238 35.1727 2.27319 34.6411 2.44553 34.1282C18.7583 0 75.4346 0 75.4346 0Z" fill="#1A4E87"/>
<path d="M104.847 30.6725V20.7342L105.067 21.0366L101.733 30.6725H99.7217V16.1019H101.994V26.1171L101.763 25.8147L105.127 16.0991H107.116V30.6697L104.847 30.6725Z" fill="#1A4E87"/>
<path d="M108.904 16.0881H111.394V30.6835H108.904V16.0881ZM110.09 22.3205H114.986V24.6601H110.09V22.3205ZM113.363 16.0881H115.856V30.6835H113.363V16.0881Z" fill="#1A4E87"/>
<path d="M119.696 28.5502C118.928 28.1946 118.289 27.6084 117.87 26.8732C117.432 26.0619 117.216 25.1498 117.242 24.2285V22.0291C117.216 21.1079 117.432 20.1959 117.87 19.3844C118.289 18.6492 118.928 18.063 119.696 17.7074C120.611 17.3263 121.593 17.1301 122.585 17.1301C123.576 17.1301 124.558 17.3263 125.473 17.7074C126.242 18.063 126.88 18.6492 127.3 19.3844C127.74 20.195 127.957 21.1075 127.93 22.0291V24.2285C127.957 25.1502 127.74 26.0626 127.3 26.8732C126.88 27.6084 126.242 28.1946 125.473 28.5502C124.558 28.9313 123.576 29.1275 122.585 29.1275C121.593 29.1275 120.611 28.9313 119.696 28.5502ZM124.695 26.0154C124.945 25.793 125.143 25.5166 125.271 25.2071C125.4 24.8977 125.457 24.5631 125.437 24.2285V22.0291C125.456 21.6946 125.4 21.3601 125.271 21.0506C125.142 20.7411 124.945 20.4648 124.695 20.2422C124.199 19.8206 123.496 19.6099 122.585 19.6099C121.673 19.6099 120.974 19.8243 120.488 20.2532C120.238 20.4758 120.041 20.7521 119.912 21.0616C119.784 21.371 119.727 21.7056 119.746 22.0401V24.2395C119.726 24.5741 119.783 24.9086 119.912 25.2181C120.041 25.5276 120.238 25.804 120.488 26.0264C120.984 26.448 121.687 26.6587 122.598 26.6587C123.51 26.6587 124.209 26.4443 124.695 26.0154ZM121.339 15.5851H123.831V30.6835H121.339V15.5851Z" fill="#1A4E87"/>
<path d="M130.636 30.4278C130.099 30.1773 129.651 29.7674 129.355 29.2539C129.046 28.6861 128.893 28.0469 128.912 27.401V19.3707C128.894 18.7231 129.047 18.0822 129.355 17.5122C129.649 16.9968 130.097 16.5863 130.636 16.3383C131.275 16.0734 131.959 15.937 132.65 15.937C133.341 15.937 134.025 16.0734 134.664 16.3383C135.202 16.5873 135.649 16.9976 135.943 17.5122C136.251 18.0822 136.404 18.7231 136.386 19.3707V27.401C136.404 28.0469 136.251 28.6861 135.943 29.2539C135.647 29.7667 135.2 30.1763 134.664 30.4278C134.026 30.6964 133.342 30.8348 132.65 30.8348C131.958 30.8348 131.274 30.6964 130.636 30.4278ZM133.308 28.1928C133.489 28.097 133.634 27.9457 133.723 27.7611C133.823 27.5481 133.872 27.3146 133.866 27.0793V19.6703C133.871 19.4386 133.822 19.2089 133.723 18.9995C133.633 18.8155 133.488 18.6644 133.308 18.5679C133.105 18.4624 132.879 18.4104 132.65 18.4167C132.422 18.4097 132.197 18.4618 131.995 18.5679C131.818 18.6662 131.674 18.8169 131.585 18.9995C131.487 19.2091 131.439 19.4388 131.445 19.6703V27.0931C131.438 27.3282 131.486 27.5616 131.585 27.7749C131.674 27.958 131.817 28.1089 131.995 28.2065C132.197 28.3126 132.422 28.3647 132.65 28.3577C132.88 28.3598 133.106 28.303 133.308 28.1928Z" fill="#1A4E87"/>
<path d="M137.973 16.0881H140.462V30.6835H137.973V16.0881ZM139.139 22.6339H141.719C141.904 22.6389 142.086 22.5891 142.242 22.491C142.394 22.3911 142.512 22.2486 142.583 22.0813C142.668 21.8776 142.709 21.6585 142.704 21.438V19.7226C142.71 19.4927 142.671 19.2639 142.589 19.049C142.523 18.8755 142.404 18.7266 142.25 18.6229C142.092 18.5228 141.907 18.4721 141.719 18.4772H139.139V16.0881H141.788C142.429 16.0704 143.066 16.2011 143.648 16.4703C144.149 16.7108 144.56 17.1047 144.822 17.5947C145.102 18.1419 145.241 18.7507 145.224 19.3652V21.8394C145.242 22.4424 145.102 23.0396 144.817 23.5714C144.547 24.0517 144.135 24.4361 143.637 24.6711C143.055 24.925 142.423 25.0435 141.788 25.0175H139.139V22.6339Z" fill="#1A4E87"/>
<path d="M154.355 16.0881H156.685V30.6835H154.465V20.4951L154.616 21.1356L152.498 28.1048H151.252L149.134 21.3391L149.335 20.4951V30.6835H147.062V16.0881H149.456L151.874 24.0167L154.355 16.0881Z" fill="#1A4E87"/>
<path d="M161.056 16.0881H162.803L166.288 30.6835H163.812L161.925 21.1164L160.035 30.6835H157.56L161.056 16.0881ZM159.942 26.0869H163.92V28.4154H159.942V26.0869Z" fill="#1A4E87"/>
<path d="M167.375 16.0881H169.851V30.6835H167.375V16.0881ZM169.221 28.2945H173.306V30.6835H169.221V28.2945ZM171.873 16.0881H174.365V30.6835H171.873V16.0881ZM173.248 28.2945H175.537V34.0072H173.251L173.248 28.2945Z" fill="#1A4E87"/>
<path d="M181.998 30.6725V20.7342L182.219 21.0366L178.884 30.6725H176.882V16.1019H179.151V26.1171L178.92 25.8147L182.285 16.0991H184.273V30.6697L181.998 30.6725Z" fill="#1A4E87"/>
<path d="M187.778 30.4278C187.242 30.1763 186.795 29.7666 186.499 29.2539C186.191 28.686 186.038 28.0468 186.056 27.401V19.3706C186.042 18.7221 186.198 18.0811 186.51 17.5122C186.804 16.9975 187.251 16.5872 187.789 16.3383C188.428 16.0734 189.113 15.937 189.804 15.937C190.496 15.937 191.181 16.0734 191.819 16.3383C192.357 16.5872 192.805 16.9975 193.098 17.5122C193.406 18.0822 193.559 18.7231 193.541 19.3706V27.401C193.56 28.0468 193.407 28.686 193.098 29.2539C192.802 29.7666 192.356 30.1763 191.819 30.4278C191.181 30.6963 190.496 30.8346 189.804 30.8346C189.112 30.8346 188.427 30.6963 187.789 30.4278H187.778ZM190.452 28.1927C190.633 28.097 190.779 27.9457 190.867 27.7611C190.967 27.5478 191.015 27.3144 191.008 27.0793V19.6703C191.014 19.4388 190.966 19.2091 190.867 18.9995C190.778 18.8154 190.633 18.6644 190.452 18.5679C190.249 18.462 190.021 18.41 189.792 18.4167C189.565 18.4099 189.34 18.462 189.14 18.5679C188.961 18.6653 188.816 18.8162 188.727 18.9995C188.629 19.2091 188.581 19.4388 188.587 19.6703V27.093C188.58 27.3281 188.628 27.5615 188.727 27.7748C188.816 27.9587 188.96 28.1098 189.14 28.2065C189.34 28.3123 189.565 28.3644 189.792 28.3577C190.022 28.3601 190.25 28.3033 190.452 28.1927Z" fill="#1A4E87"/>
<path d="M195.117 16.0881H197.607V30.6835H195.117V16.0881ZM196.303 22.3205H201.194V24.6601H196.303V22.3205ZM199.576 16.0881H202.052V30.6835H199.576V16.0881Z" fill="#1A4E87"/>
<path d="M203.854 16.0881H206.346V30.6835H203.854V16.0881ZM205.039 22.3205H209.93V24.6601H205.039V22.3205ZM208.315 16.0881H210.805V30.6835H208.315V16.0881Z" fill="#1A4E87"/>
<path d="M215.177 16.0881H216.924L220.409 30.6835H217.933L216.044 21.1164L214.156 30.6835H211.681L215.177 16.0881ZM214.06 26.0869H218.038V28.4154H214.06V26.0869Z" fill="#1A4E87"/>
<path d="M222.951 24.6106C222.412 24.3515 221.968 23.9305 221.68 23.4064C221.375 22.8215 221.225 22.1686 221.243 21.5095V19.3899C221.225 18.7631 221.376 18.1431 221.68 17.5947C221.975 17.0935 222.419 16.6973 222.951 16.462C223.58 16.1887 224.262 16.0564 224.948 16.0744H227.058V18.4634H225.311C225.018 18.4553 224.727 18.5225 224.467 18.6586C224.228 18.7915 224.037 18.9964 223.922 19.2442C223.791 19.5245 223.727 19.8312 223.735 20.1404V20.9652C223.727 21.2752 223.791 21.5829 223.922 21.8641C224.041 22.1079 224.233 22.308 224.472 22.436C224.732 22.5743 225.023 22.6425 225.317 22.6339H227.063V25.0174H224.954C224.263 25.0386 223.578 24.8993 222.951 24.6106ZM223.342 24.1075L225.691 24.5693L223.993 30.6835H221.243L223.342 24.1075ZM225.993 16.0771H228.494V30.6835H225.993V16.0771Z" fill="#1A4E87"/>
<path d="M101.34 51.6404C100.82 51.3495 100.401 50.9062 100.141 50.3703C99.8465 49.743 99.7033 49.0558 99.7224 48.3634V40.8939C99.7036 40.2015 99.8468 39.5143 100.141 38.887C100.401 38.351 100.82 37.9078 101.34 37.6169C101.929 37.3293 102.576 37.1798 103.231 37.1798C103.887 37.1798 104.533 37.3293 105.122 37.6169C105.646 37.9066 106.066 38.3526 106.324 38.8925C106.613 39.5233 106.753 40.2116 106.734 40.9049V42.0788H104.215V40.9049C104.219 40.6855 104.181 40.4672 104.105 40.2616C104.038 40.0912 103.92 39.9461 103.766 39.8465C103.605 39.7471 103.419 39.6965 103.23 39.7008C103.046 39.696 102.864 39.7447 102.707 39.841C102.555 39.94 102.437 40.0842 102.371 40.2533C102.29 40.4568 102.251 40.6748 102.256 40.8939V48.3634C102.251 48.5816 102.29 48.7987 102.371 49.0012C102.439 49.1679 102.556 49.3099 102.707 49.4081C102.864 49.5044 103.046 49.5531 103.23 49.5483C103.423 49.5561 103.614 49.5073 103.78 49.4081C103.931 49.3105 104.047 49.1682 104.113 49.0012C104.19 48.7939 104.228 48.5737 104.223 48.3524V47.1785H106.734V48.3524C106.753 49.0465 106.612 49.7356 106.324 50.3675C106.066 50.9067 105.646 51.3517 105.122 51.6404C104.533 51.928 103.887 52.0775 103.231 52.0775C102.576 52.0775 101.929 51.928 101.34 51.6404Z" fill="#1A4E87"/>
<path d="M113.243 51.9181V41.9798L113.465 42.2795L110.129 51.9181H108.109V37.331H110.379V47.349L110.148 47.0493L113.512 37.331H115.504V51.9181H113.243Z" fill="#1A4E87"/>
<path d="M118.918 51.6404C118.397 51.3504 117.978 50.9069 117.719 50.3703C117.425 49.743 117.281 49.0558 117.301 48.3634V40.8939C117.282 40.2015 117.425 39.5143 117.719 38.887C117.978 38.3504 118.397 37.9069 118.918 37.6169C119.507 37.3293 120.154 37.1798 120.809 37.1798C121.465 37.1798 122.112 37.3293 122.701 37.6169C123.224 37.9059 123.644 38.3521 123.9 38.8925C124.19 39.5227 124.332 40.2113 124.313 40.9049V42.0788H121.793V40.9049C121.797 40.6855 121.759 40.4672 121.683 40.2616C121.616 40.0912 121.498 39.9461 121.344 39.8465C121.183 39.7471 120.997 39.6965 120.808 39.7008C120.624 39.696 120.442 39.7447 120.285 39.841C120.133 39.94 120.016 40.0842 119.95 40.2533C119.868 40.4568 119.829 40.6748 119.834 40.8939V48.3634C119.829 48.5816 119.868 48.7987 119.95 49.0012C120.017 49.1679 120.134 49.3099 120.285 49.4081C120.442 49.5044 120.624 49.5531 120.808 49.5483C121.001 49.5561 121.192 49.5073 121.358 49.4081C121.509 49.3105 121.625 49.1682 121.691 49.0012C121.769 48.7939 121.806 48.5737 121.801 48.3524V47.1785H124.321V48.3524C124.339 49.0468 124.198 49.7363 123.908 50.3675C123.652 50.9071 123.232 51.3524 122.709 51.6404C122.12 51.928 121.473 52.0775 120.818 52.0775C120.162 52.0775 119.515 51.928 118.926 51.6404H118.918Z" fill="#1A4E87"/>
<path d="M124.89 37.331H132.207V39.72H124.89V37.331ZM127.299 38.5571H129.792V51.9264H127.299V38.5571Z" fill="#1A4E87"/>
<path d="M133.393 37.331H135.868V51.9263H133.393V37.331ZM134.493 37.331H139.882V39.7613H134.498L134.493 37.331ZM134.493 43.4644H139.373V45.8837H134.498L134.493 43.4644ZM134.493 49.5126H139.882V51.9401H134.498L134.493 49.5126Z" fill="#1A4E87"/>
<path d="M148.46 37.331H150.79V51.9264H148.57V41.7379L148.721 42.3812L146.603 49.3476H145.357L143.236 42.5819L143.436 41.7379V51.9264H141.167V37.331H143.558L145.978 45.2624L148.46 37.331Z" fill="#1A4E87"/>
<path d="M155.15 37.331H156.897L160.382 51.9264H157.906L156.016 42.362L154.129 51.9264H151.653L155.15 37.331ZM154.049 47.3297H158.027V49.6583H154.049V47.3297Z" fill="#1A4E87"/>
<path d="M164.863 37.331H167.485L169.411 48.193L167.823 49.8287L164.863 37.331ZM170.346 49.4851C170.255 49.9916 170.047 50.4699 169.738 50.8817C169.44 51.2693 169.048 51.5748 168.599 51.7697C168.101 51.9803 167.564 52.0842 167.023 52.0748H165.997V49.5758H167.023C167.276 49.5792 167.524 49.5116 167.741 49.3806C167.959 49.243 168.14 49.0543 168.269 48.8308C168.413 48.5604 168.506 48.266 168.544 47.962L170.294 37.342H172.805L170.346 49.4851Z" fill="#1A4E87"/>
<path d="M173.701 37.331H176.177V51.9264H173.701V37.331ZM175.008 37.331H179.668V39.7118H175.008V37.331ZM178.16 37.331H180.653V51.9264H178.16V37.331Z" fill="#1A4E87"/>
<path d="M182.441 37.331H184.917V51.9264H182.441V37.331ZM183.605 43.8768H186.188C186.371 43.8817 186.552 43.8329 186.708 43.7366C186.861 43.6365 186.981 43.4929 187.052 43.3242C187.135 43.1203 187.176 42.9012 187.17 42.6809V40.9627C187.176 40.7328 187.136 40.5041 187.055 40.2891C186.99 40.1158 186.872 39.9669 186.719 39.863C186.56 39.7632 186.376 39.7125 186.188 39.7173H183.605V37.3283H186.257C186.898 37.3105 187.534 37.4413 188.116 37.7104C188.617 37.9495 189.028 38.3413 189.291 38.8293C189.572 39.3774 189.71 39.9872 189.693 40.6025V43.0603C189.711 43.6633 189.57 44.2604 189.286 44.7923C189.015 45.272 188.603 45.6562 188.105 45.8919C187.526 46.1563 186.894 46.2851 186.257 46.2686H183.605V43.8768Z" fill="#1A4E87"/>
<path d="M193.408 37.331H195.155L198.641 51.9264H196.165L194.278 42.362L192.388 51.9264H189.912L193.408 37.331ZM192.286 47.3297H196.264V49.6583H192.286V47.3297Z" fill="#1A4E87"/>
<path d="M199.728 37.331H202.228V51.9263H199.728V37.331ZM201.152 49.5895H203.353C203.483 49.5975 203.614 49.5798 203.737 49.5373C203.86 49.4949 203.974 49.4285 204.071 49.3421C204.159 49.2516 204.227 49.1437 204.271 49.0254C204.315 48.907 204.334 48.7809 204.327 48.6548V46.6974C204.333 46.4854 204.293 46.2745 204.211 46.0789C204.14 45.9153 204.019 45.7786 203.865 45.6885C203.697 45.5949 203.507 45.5483 203.315 45.5538H201.164V43.2445H203.254C203.382 43.2521 203.51 43.2314 203.629 43.1839C203.748 43.1363 203.855 43.0632 203.942 42.9695C204.118 42.7393 204.205 42.4533 204.187 42.164V40.5998C204.194 40.4746 204.176 40.3493 204.134 40.2312C204.092 40.1131 204.027 40.0047 203.942 39.9125C203.851 39.8273 203.744 39.7614 203.628 39.7189C203.511 39.6764 203.387 39.658 203.262 39.665H201.164V37.3365H203.515C204.097 37.3211 204.675 37.4416 205.202 37.6884C205.657 37.9107 206.032 38.2703 206.272 38.7166C206.529 39.2218 206.654 39.7832 206.638 40.3496V41.9139C206.646 42.3184 206.561 42.7194 206.387 43.085C206.22 43.4185 205.969 43.7028 205.658 43.9098C205.312 44.1385 204.919 44.2869 204.509 44.3441C204.952 44.3965 205.379 44.5437 205.76 44.7757C206.097 44.9899 206.37 45.2898 206.552 45.6445C206.743 46.0334 206.837 46.4624 206.828 46.8954V48.883C206.844 49.4543 206.72 50.021 206.464 50.5325C206.229 50.9813 205.859 51.3448 205.405 51.5717C204.884 51.8205 204.311 51.942 203.733 51.9263H201.161L201.152 49.5895Z" fill="#1A4E87"/>
<path d="M208.055 49.5676C208.227 49.5747 208.397 49.5368 208.55 49.4576C208.682 49.382 208.785 49.2637 208.841 49.1222C208.911 48.9406 208.943 48.7473 208.938 48.5531V37.331H211.43V48.6741C211.452 49.2999 211.334 49.9227 211.083 50.4968C210.863 50.964 210.491 51.3429 210.027 51.5717C209.468 51.8263 208.858 51.9477 208.244 51.9263H208.055V49.5676ZM210.605 37.331H214.393V39.72H210.605V37.331ZM213.026 37.331H215.518V51.9263H213.026V37.331Z" fill="#1A4E87"/>
<path d="M217.319 37.331H219.795V51.9263H217.319V37.331ZM218.42 37.331H223.803V39.7613H218.42V37.331ZM218.42 43.4644H223.302V45.8837H218.42V43.4644ZM218.42 49.5126H223.803V51.9401H218.42V49.5126Z" fill="#1A4E87"/>
<path d="M225.08 37.331H227.556V51.9264H225.08V37.331ZM226.266 43.5661H231.157V45.9112H226.266V43.5661ZM229.539 37.331H232.029V51.9264H229.539V37.331Z" fill="#1A4E87"/>
<path d="M238.942 51.9181V41.9798L239.162 42.2795L235.828 51.9181H233.825V37.331H236.097V47.349L235.866 47.0493L239.231 37.331H241.22V51.9181H238.942Z" fill="#1A4E87"/>
<path d="M244.454 45.8534C243.915 45.5944 243.471 45.1733 243.183 44.6493C242.878 44.0646 242.727 43.4116 242.746 42.7524V40.6328C242.728 40.0077 242.879 39.3895 243.183 38.843C243.477 38.3411 243.922 37.944 244.454 37.7076C245.084 37.435 245.767 37.3036 246.454 37.3227H248.564V39.7118H246.814C246.521 39.7027 246.231 39.7699 245.972 39.907C245.733 40.0345 245.54 40.2347 245.422 40.4788C245.292 40.7602 245.229 41.0679 245.238 41.3778V42.2025C245.23 42.5123 245.293 42.8199 245.422 43.1015C245.541 43.3451 245.734 43.5451 245.972 43.6733C246.232 43.8092 246.522 43.8764 246.814 43.8685H248.564V46.2576H246.454C245.765 46.2789 245.08 46.1406 244.454 45.8534ZM244.847 45.3531L247.197 45.8149L245.499 51.9263H242.748L244.847 45.3531ZM247.499 37.3227H250V51.9263H247.499V37.3227Z" fill="#1A4E87"/>
<path d="M101.447 72.9135C100.909 72.6638 100.461 72.2538 100.165 71.7396C99.8565 71.1718 99.7037 70.5325 99.7222 69.8867V61.8563C99.7044 61.2096 99.8571 60.5696 100.165 60.0006C100.459 59.4852 100.908 59.0747 101.447 58.8267C102.085 58.5618 102.77 58.4254 103.461 58.4254C104.152 58.4254 104.836 58.5618 105.474 58.8267C106.013 59.0763 106.461 59.4864 106.756 60.0006C107.063 60.5699 107.215 61.2099 107.196 61.8563V69.8867C107.216 70.5323 107.064 71.1716 106.756 71.7396C106.459 72.2525 106.011 72.6622 105.474 72.9135C104.837 73.1821 104.152 73.3204 103.461 73.3204C102.769 73.3204 102.084 73.1821 101.447 72.9135ZM104.118 70.6812C104.298 70.5832 104.444 70.4326 104.536 70.2495C104.635 70.0362 104.683 69.8028 104.677 69.5678V62.145C104.682 61.9127 104.634 61.6821 104.536 61.4714C104.444 61.2884 104.298 61.1378 104.118 61.0398C103.915 60.9366 103.689 60.8856 103.461 60.8914C103.233 60.8848 103.008 60.9358 102.806 61.0398C102.629 61.139 102.486 61.2895 102.396 61.4714C102.298 61.6821 102.25 61.9127 102.256 62.145V69.5678C102.249 69.8028 102.297 70.0362 102.396 70.2495C102.486 70.4315 102.629 70.582 102.806 70.6812C103.008 70.786 103.233 70.838 103.461 70.8324C103.689 70.8373 103.915 70.7853 104.118 70.6812Z" fill="#1A4E87"/>
<path d="M108.783 58.5738H111.275V73.1719H108.783V58.5738ZM110.06 70.7801H112.31C112.541 70.786 112.769 70.726 112.967 70.6069C113.157 70.4837 113.306 70.3066 113.394 70.0983C113.501 69.8485 113.553 69.5783 113.545 69.3066V68.1409C113.552 67.859 113.503 67.5785 113.399 67.3162C113.314 67.1025 113.165 66.9201 112.973 66.7938C112.774 66.6698 112.544 66.6068 112.31 66.6124H110.06V64.2233H112.761C113.374 64.2056 113.983 64.3417 114.53 64.6192C115.011 64.8795 115.402 65.2804 115.649 65.7684C115.919 66.3324 116.051 66.9524 116.035 67.5773V69.8839C116.051 70.4974 115.919 71.1058 115.649 71.6571C115.4 72.1397 115.007 72.5327 114.524 72.7815C113.977 73.0523 113.372 73.1854 112.761 73.1691H110.06V70.7801ZM110.28 58.5738H115.383V60.9628H110.28V58.5738Z" fill="#1A4E87"/>
<path d="M117.572 58.5739H120.065V73.172H117.572V58.5739ZM118.739 65.1197H121.313C121.498 65.1241 121.679 65.0755 121.836 64.9795C121.989 64.8791 122.107 64.7355 122.177 64.5671C122.262 64.3644 122.303 64.1462 122.298 63.9265V62.2083C122.304 61.9793 122.265 61.7514 122.183 61.5375C122.117 61.3639 122 61.2144 121.847 61.1086C121.687 61.0089 121.502 60.9583 121.313 60.9629H118.733V58.5739H121.385C122.025 58.5574 122.66 58.6882 123.242 58.956C123.742 59.1959 124.153 59.5876 124.416 60.0749C124.698 60.6226 124.836 61.2327 124.818 61.8482V64.3059C124.836 64.9089 124.696 65.5061 124.411 66.0379C124.142 66.5188 123.73 66.9033 123.231 67.1376C122.653 67.403 122.021 67.5319 121.385 67.5142H118.733L118.739 65.1197Z" fill="#1A4E87"/>
<path d="M128.541 58.5738H130.29L133.776 73.1719H131.3L129.413 63.6048L127.526 73.1719H125.05L128.541 58.5738ZM127.44 68.5725H131.418V70.9011H127.427L127.44 68.5725Z" fill="#1A4E87"/>
<path d="M136.444 72.9107C135.887 72.6591 135.422 72.2413 135.113 71.7148C134.794 71.1383 134.636 70.487 134.656 69.8289V69.1251H137.156V69.7382C137.147 69.9038 137.175 70.0694 137.238 70.223C137.301 70.3766 137.397 70.5143 137.52 70.6261C137.81 70.8543 138.174 70.967 138.543 70.9423C138.718 70.953 138.894 70.9267 139.058 70.8651C139.223 70.8035 139.372 70.7081 139.497 70.5849C139.737 70.3136 139.859 69.959 139.839 69.598V68.0309C139.861 67.6948 139.754 67.3628 139.541 67.1017C139.435 66.9918 139.306 66.906 139.164 66.85C139.022 66.7941 138.869 66.7693 138.716 66.7773H136.909V64.3883H138.716C138.837 64.395 138.958 64.377 139.071 64.3354C139.185 64.2938 139.289 64.2294 139.376 64.1463C139.459 64.0521 139.523 63.9423 139.563 63.8234C139.603 63.7044 139.619 63.5787 139.61 63.4536V61.8975C139.621 61.7513 139.602 61.6044 139.554 61.4656C139.507 61.3268 139.433 61.1989 139.335 61.0893C139.229 60.9918 139.105 60.917 138.969 60.8697C138.833 60.8224 138.689 60.8036 138.546 60.8143C138.393 60.8046 138.241 60.8253 138.097 60.8754C137.953 60.9254 137.82 61.0038 137.707 61.1058C137.604 61.2158 137.524 61.3457 137.474 61.4876C137.423 61.6295 137.402 61.7802 137.412 61.9305V62.6453H134.912V61.9415C134.893 61.2836 135.044 60.632 135.352 60.0501C135.645 59.5268 136.093 59.1071 136.634 58.8487C137.265 58.5607 137.954 58.4206 138.647 58.4391C139.294 58.4208 139.936 58.5614 140.515 58.8487C141.025 59.1174 141.439 59.537 141.701 60.0501C141.99 60.6376 142.132 61.2869 142.114 61.9415V63.4865C142.107 63.8649 142.003 64.2351 141.811 64.5615C141.591 64.9455 141.302 65.2857 140.958 65.5649C141.396 65.7571 141.758 66.0887 141.987 66.5079C142.24 66.9799 142.366 67.5094 142.353 68.0447V69.6117C142.372 70.3089 142.219 71.0001 141.907 71.6241C141.617 72.174 141.162 72.6192 140.606 72.897C139.968 73.2038 139.265 73.3537 138.557 73.3341C137.83 73.3506 137.108 73.206 136.444 72.9107Z" fill="#1A4E87"/>
<path d="M145.302 72.9135C144.763 72.6638 144.315 72.2538 144.02 71.7396C143.711 71.1718 143.558 70.5325 143.577 69.8867V61.8563C143.559 61.2096 143.712 60.5696 144.02 60.0006C144.315 59.4872 144.763 59.0788 145.302 58.8322C145.94 58.5672 146.624 58.4308 147.315 58.4308C148.006 58.4308 148.691 58.5672 149.329 58.8322C149.867 59.0812 150.314 59.4915 150.608 60.0061C150.915 60.5735 151.068 61.2115 151.051 61.8563V69.8867C151.069 70.5325 150.917 71.1718 150.608 71.7396C150.312 72.253 149.866 72.6629 149.329 72.9135C148.691 73.1821 148.007 73.3204 147.315 73.3204C146.623 73.3204 145.939 73.1821 145.302 72.9135ZM147.973 70.6812C148.153 70.5832 148.299 70.4326 148.391 70.2495C148.488 70.0358 148.536 69.8027 148.531 69.5678V62.145C148.536 61.9128 148.488 61.6825 148.391 61.4714C148.299 61.2884 148.153 61.1378 147.973 61.0398C147.769 60.9366 147.543 60.8856 147.315 60.8914C147.088 60.8848 146.863 60.9358 146.66 61.0398C146.483 61.139 146.34 61.2895 146.251 61.4714C146.152 61.6821 146.104 61.9127 146.11 62.145V69.5678C146.103 69.8028 146.151 70.0362 146.251 70.2495C146.34 70.4315 146.483 70.582 146.66 70.6812C146.862 70.786 147.088 70.838 147.315 70.8324C147.543 70.8373 147.769 70.7853 147.973 70.6812Z" fill="#1A4E87"/>
<path d="M152.638 58.5738H155.149V73.1719H152.649L152.638 58.5738ZM154.063 70.8323H156.263C156.527 70.8486 156.786 70.7596 156.984 70.5849C157.072 70.4945 157.141 70.3866 157.185 70.2683C157.229 70.1499 157.247 70.0237 157.24 69.8976V67.9402C157.246 67.7291 157.206 67.5191 157.124 67.3244C157.053 67.1601 156.932 67.0225 156.778 66.9313C156.61 66.8378 156.42 66.7913 156.228 66.7966H154.076V64.4873H156.167C156.295 64.4949 156.423 64.4742 156.542 64.4267C156.661 64.3791 156.768 64.306 156.855 64.2123C157.033 63.9842 157.121 63.6985 157.102 63.4096V61.8426C157.11 61.7172 157.092 61.5916 157.049 61.4735C157.007 61.3553 156.941 61.2471 156.855 61.1553C156.764 61.0708 156.658 61.0056 156.542 60.9635C156.425 60.9214 156.302 60.9034 156.178 60.9106H154.076V58.5793H156.428C157.01 58.5639 157.588 58.6844 158.115 58.9312C158.572 59.1528 158.946 59.5138 159.185 59.9621C159.44 60.463 159.565 61.0196 159.551 61.5814V63.1457C159.554 63.5568 159.46 63.9628 159.276 64.3306C159.108 64.6641 158.857 64.9483 158.547 65.1553C158.2 65.3837 157.808 65.533 157.397 65.5924C157.841 65.6422 158.268 65.7896 158.648 66.024C158.986 66.2364 159.26 66.5367 159.441 66.8928C159.631 67.2806 159.726 67.7088 159.716 68.1409V70.1286C159.732 70.6999 159.608 71.2665 159.353 71.7781C159.119 72.228 158.748 72.5919 158.294 72.8172C157.772 73.067 157.199 73.1895 156.621 73.1746H154.049L154.063 70.8323Z" fill="#1A4E87"/>
<path d="M163.747 58.5738H165.496L168.981 73.1719H166.506L164.616 63.6048L162.729 73.1719H160.253L163.747 58.5738ZM162.646 68.5725H166.624V70.9011H162.632L162.646 68.5725Z" fill="#1A4E87"/>
<path d="M170.064 58.5738H172.557V73.1719H170.064V58.5738ZM171.25 64.8089H176.141V67.1485H171.25V64.8089ZM174.524 58.5738H177.016V73.1719H174.524V58.5738Z" fill="#1A4E87"/>
<path d="M183.927 73.1609V63.2309L184.147 63.5333L180.813 73.1692H178.808V58.5738H181.077V68.5918L180.846 68.2921L184.21 58.5738H186.199V73.1609H183.927Z" fill="#1A4E87"/>
<path d="M187.984 58.5738H190.477V73.1719H187.984V58.5738ZM189.085 58.5738H194.487V61.0041H189.09L189.085 58.5738ZM189.085 64.7072H193.965V67.1265H189.09L189.085 64.7072ZM189.085 70.7416H194.487V73.1719H189.09L189.085 70.7416Z" fill="#1A4E87"/>
<path d="M203.05 58.5738H205.38V73.1719H203.16V62.9807L203.312 63.624L201.194 70.5904H199.947L197.829 63.8247L198.03 62.9807V73.1719H195.758V58.5738H198.148L200.569 66.5052L203.05 58.5738Z" fill="#1A4E87"/>
</svg>
