<svg width="175" height="60" viewBox="0 0 175 60" fill="none" xmlns="http://www.w3.org/2000/svg">
<path d="M23.55 21.84L23.32 33.72C21.6267 34.16 19.92 34.66 18.2 35.22L18.47 21.77L23.55 21.84Z" fill="#1A4E87"/>
<path d="M32.77 14.46L32.42 31.85C30.8 32.1 29.09 32.41 27.32 32.78L27.68 14.38L32.77 14.46Z" fill="#1A4E87"/>
<path d="M42 6.33L41.5 30.82C40.07 30.92 38.35 31.07 36.41 31.3L36.9 6.3L42 6.33Z" fill="#1A4E87"/>
<path d="M49.91 0L47.75 37.65C47.75 37.65 8.81 34.66 0 58.05C8.36 32 44.51 32 44.51 32L45.59 3.77C45.59 3.77 11.87 4.71 1.52 23.24C1.46291 23.3676 1.42257 23.502 1.4 23.64C1.42826 23.282 1.50219 22.9292 1.62 22.59C12.41 0 49.91 0 49.91 0Z" fill="#1A4E87"/>
<path d="M78.3913 20.31V13.73L78.5413 13.93L76.3313 20.31H75.0312V10.65H76.5413V17.28L76.3812 17.08L78.6113 10.65H79.9313V20.31H78.3913Z" fill="#1A4E87"/>
<path d="M81.0811 10.65H82.731V20.31H81.0811V10.65ZM81.8611 14.78H85.1011V16.32H81.8611V14.78ZM84.0311 10.65H85.6811V20.31H84.0311V10.65Z" fill="#1A4E87"/>
<path d="M88.2214 18.8999C87.7185 18.6633 87.3024 18.2752 87.0314 17.7899C86.7246 17.2444 86.5725 16.6255 86.5914 15.9999V14.5899C86.5797 13.9779 86.7316 13.3737 87.0314 12.8399C87.3108 12.3541 87.7334 11.9665 88.2414 11.7299C89.4646 11.2244 90.8383 11.2244 92.0614 11.7299C92.5695 11.9665 92.9921 12.3541 93.2714 12.8399C93.5612 13.3765 93.7027 13.9805 93.6814 14.5899V15.9999C93.7027 16.6094 93.5612 17.2134 93.2714 17.7499C92.9942 18.258 92.5588 18.6617 92.0314 18.8999C90.8083 19.4055 89.4346 19.4055 88.2114 18.8999H88.2214ZM91.5214 17.2199C91.6964 17.0711 91.8338 16.883 91.9225 16.671C92.0111 16.459 92.0484 16.2291 92.0314 15.9999V14.5899C92.0433 14.3682 92.0045 14.1466 91.9178 13.9422C91.8312 13.7377 91.699 13.5557 91.5314 13.4099C91.1304 13.1071 90.6325 12.9613 90.1314 12.9999C89.6296 12.9687 89.1331 13.1176 88.7314 13.4199C88.5673 13.568 88.4383 13.7507 88.3535 13.9548C88.2688 14.1588 88.2305 14.3792 88.2414 14.5999V15.9999C88.2305 16.2207 88.2688 16.441 88.3535 16.6451C88.4383 16.8492 88.5673 17.0319 88.7314 17.1799C89.1331 17.4823 89.6296 17.6312 90.1314 17.5999C90.6254 17.6448 91.1189 17.5098 91.5214 17.2199V17.2199ZM89.3014 10.3199H90.9514V20.3199H89.3014V10.3199Z" fill="#1A4E87"/>
<path d="M95.4612 20.14C95.1039 19.9744 94.8069 19.7018 94.6112 19.36C94.4044 18.9877 94.3041 18.5656 94.3212 18.14V12.82C94.3068 12.3915 94.4069 11.9669 94.6112 11.59C94.8042 11.2484 95.1023 10.9783 95.4612 10.82C95.882 10.6418 96.3343 10.5499 96.7912 10.5499C97.2482 10.5499 97.7005 10.6418 98.1212 10.82C98.4782 10.9813 98.7755 11.2506 98.9712 11.59C99.1712 11.9685 99.271 12.392 99.2612 12.82V18.14C99.2734 18.5651 99.1734 18.9859 98.9712 19.36C98.7707 19.6978 98.475 19.9691 98.1212 20.14C97.7005 20.3182 97.2482 20.4101 96.7912 20.4101C96.3343 20.4101 95.882 20.3182 95.4612 20.14V20.14ZM97.2212 18.66C97.3422 18.5992 97.4404 18.501 97.5012 18.38C97.5637 18.2384 97.5944 18.0848 97.5912 17.93V13C97.595 12.8484 97.5642 12.6979 97.5012 12.56C97.441 12.4361 97.3429 12.3345 97.2212 12.27C97.0869 12.206 96.94 12.1728 96.7912 12.1728C96.6424 12.1728 96.4955 12.206 96.3612 12.27C96.2418 12.3376 96.1446 12.4383 96.0812 12.56C96.0319 12.7011 96.0148 12.8514 96.0312 13V17.91C96.028 18.0648 96.0587 18.2184 96.1212 18.36C96.1852 18.4787 96.2825 18.576 96.4012 18.64C96.5355 18.704 96.6824 18.7372 96.8312 18.7372C96.98 18.7372 97.1269 18.704 97.2612 18.64L97.2212 18.66Z" fill="#1A4E87"/>
<path d="M100.312 10.65H101.962V20.31H100.312V10.65ZM101.082 15H102.792C102.911 15.0035 103.029 14.9722 103.132 14.91C103.235 14.8473 103.316 14.7526 103.362 14.64C103.417 14.5035 103.444 14.3573 103.442 14.21V13.06C103.445 12.9062 103.418 12.7533 103.362 12.61C103.32 12.4956 103.243 12.3975 103.142 12.33C103.039 12.26 102.916 12.2249 102.792 12.23H101.082V10.65H102.832C103.245 10.6413 103.656 10.7268 104.032 10.9C104.363 11.0587 104.636 11.3176 104.812 11.64C105 12.0041 105.093 12.4102 105.082 12.82V14.44C105.093 14.8403 105 15.2367 104.812 15.59C104.632 15.9075 104.36 16.1623 104.032 16.32C103.644 16.4896 103.224 16.5716 102.802 16.56H101.082V15Z" fill="#1A4E87"/>
<path d="M111.151 10.65H112.691V20.31H111.221V13.57L111.321 13.99L109.921 18.6H109.091L107.691 14.13L107.831 13.57V20.31H106.321V10.65H107.911L109.511 15.9L111.151 10.65Z" fill="#1A4E87"/>
<path d="M115.581 10.65H116.741L119.041 20.31H117.411L116.161 14L114.911 20.33H113.271L115.581 10.65ZM114.841 17.27H117.471V18.81H114.841V17.27Z" fill="#1A4E87"/>
<path d="M119.762 10.65H121.412V20.31H119.762V10.65ZM121.032 18.73H123.742V20.31H121.032V18.73ZM122.792 10.65H124.432V20.31H122.792V10.65ZM123.702 18.73H125.212V22.51H123.702V18.73Z" fill="#1A4E87"/>
<path d="M129.441 20.31V13.73L129.581 13.93L127.381 20.31H126.031V10.65H127.531V17.28L127.381 17.08L129.601 10.65H130.921V20.31H129.441Z" fill="#1A4E87"/>
<path d="M133.261 20.14C132.907 19.9691 132.612 19.6978 132.411 19.36C132.209 18.9859 132.109 18.5651 132.121 18.14V12.82C132.111 12.392 132.211 11.9686 132.411 11.59C132.607 11.2506 132.904 10.9813 133.261 10.82C133.678 10.6296 134.133 10.5372 134.591 10.55C135.052 10.5385 135.51 10.6308 135.931 10.82C136.285 10.9819 136.579 11.2513 136.771 11.59C136.975 11.9669 137.076 12.3915 137.061 12.82V18.14C137.078 18.5656 136.978 18.9877 136.771 19.36C136.577 19.6995 136.284 19.9716 135.931 20.14C135.51 20.3292 135.052 20.4215 134.591 20.41C134.133 20.4228 133.678 20.3304 133.261 20.14V20.14ZM135.031 18.66C135.149 18.5986 135.244 18.5003 135.301 18.38C135.372 18.2408 135.406 18.086 135.401 17.93V13C135.407 12.8471 135.373 12.6953 135.301 12.56C135.245 12.4368 135.15 12.3351 135.031 12.27C134.894 12.2036 134.743 12.1694 134.591 12.17C134.442 12.1687 134.294 12.203 134.161 12.27C134.042 12.3351 133.948 12.4368 133.891 12.56C133.828 12.6979 133.797 12.8484 133.801 13V17.91C133.798 18.0648 133.829 18.2184 133.891 18.36C133.948 18.4803 134.043 18.5786 134.161 18.64C134.293 18.7115 134.441 18.7461 134.591 18.74C134.742 18.7521 134.894 18.7245 135.031 18.66V18.66Z" fill="#1A4E87"/>
<path d="M138.111 10.65H139.761V20.31H138.111V10.65ZM138.901 14.78H142.131V16.32H138.901V14.78ZM141.031 10.65H142.681V20.31H141.031V10.65Z" fill="#1A4E87"/>
<path d="M143.901 10.65H145.541V20.31H143.901V10.65ZM144.681 14.78H147.921V16.32H144.681V14.78ZM146.851 10.65H148.491V20.31H146.851V10.65Z" fill="#1A4E87"/>
<path d="M151.381 10.65H152.541L154.851 20.31H153.211L151.961 14L150.711 20.33H149.081L151.381 10.65ZM150.651 17.27H153.281V18.81H150.651V17.27Z" fill="#1A4E87"/>
<path d="M156.531 16.29C156.173 16.1197 155.879 15.8394 155.691 15.49C155.485 15.1063 155.385 14.675 155.401 14.24V12.84C155.386 12.4242 155.487 12.0124 155.691 11.65C155.884 11.317 156.178 11.0543 156.531 10.9C156.947 10.719 157.397 10.6303 157.851 10.64H159.251V12.23H158.091C157.897 12.225 157.706 12.2661 157.531 12.35C157.38 12.4406 157.259 12.5725 157.181 12.73C157.089 12.9162 157.044 13.1223 157.051 13.33V13.88C157.043 14.0845 157.088 14.2876 157.181 14.47C157.253 14.6315 157.376 14.7649 157.531 14.85C157.703 14.9422 157.896 14.9871 158.091 14.98H159.251V16.56H157.851C157.396 16.5712 156.945 16.4789 156.531 16.29V16.29ZM156.791 15.96L158.341 16.27L157.221 20.27H155.401L156.791 15.96ZM158.541 10.64H160.201V20.31H158.541V10.64Z" fill="#1A4E87"/>
<path d="M76.031 34.19C75.6909 33.9937 75.4161 33.7015 75.241 33.35C75.0681 32.9222 74.9962 32.4602 75.031 32V27C75.0213 26.5411 75.1171 26.0861 75.311 25.67C75.4778 25.3536 75.7264 25.0877 76.031 24.9C76.4218 24.7092 76.851 24.61 77.286 24.61C77.7209 24.61 78.1502 24.7092 78.541 24.9C78.8825 25.0991 79.1574 25.3949 79.331 25.75C79.5214 26.1669 79.6138 26.6219 79.601 27.08V27.86H78.031V27.08C78.0323 26.9329 78.0052 26.7869 77.951 26.65C77.9095 26.5382 77.8321 26.4433 77.731 26.38C77.6244 26.3099 77.4985 26.2749 77.371 26.28C77.2515 26.2777 77.1337 26.3089 77.031 26.37C76.9319 26.4399 76.8554 26.5372 76.811 26.65C76.7521 26.7819 76.7247 26.9257 76.731 27.07V32.07C76.7247 32.2144 76.7521 32.3582 76.811 32.49C76.8525 32.6019 76.9298 32.6968 77.031 32.76C77.1383 32.8187 77.2587 32.8494 77.381 32.8494C77.5033 32.8494 77.6236 32.8187 77.731 32.76C77.8321 32.6968 77.9095 32.6019 77.951 32.49C78.0146 32.3349 78.042 32.1673 78.031 32V31.22H79.691V32C79.7038 32.4582 79.6114 32.9132 79.421 33.33C79.2474 33.6852 78.9725 33.981 78.631 34.18C78.2401 34.3709 77.8109 34.4701 77.376 34.4701C76.941 34.4701 76.5118 34.3709 76.121 34.18L76.031 34.19Z" fill="#1A4E87"/>
<path d="M83.9515 34.37V27.79L84.0915 27.99L81.8915 34.37H80.5615V24.71H82.0315V31.35L81.8815 31.15L84.1015 24.71H85.4215V34.37H83.9515Z" fill="#1A4E87"/>
<path d="M87.701 34.19C87.3609 33.9936 87.0862 33.7015 86.911 33.35C86.7141 32.9278 86.6183 32.4656 86.631 32V27C86.6214 26.5411 86.7172 26.0861 86.911 25.67C87.0862 25.3185 87.3609 25.0263 87.701 24.83C88.0918 24.6391 88.5211 24.5399 88.956 24.5399C89.391 24.5399 89.8202 24.6391 90.211 24.83C90.5526 25.029 90.8275 25.3248 91.001 25.68C91.1914 26.0969 91.2838 26.5518 91.271 27.01V27.79H89.601V27.01C89.6055 26.8635 89.5818 26.7175 89.531 26.58C89.4895 26.4682 89.4121 26.3732 89.311 26.31C89.2044 26.2398 89.0785 26.2048 88.951 26.21C88.8314 26.2065 88.7133 26.2378 88.611 26.3C88.5114 26.3718 88.4322 26.4683 88.381 26.58C88.3303 26.714 88.3065 26.8567 88.311 27V32C88.3065 32.1432 88.3303 32.2859 88.381 32.42C88.4279 32.531 88.5076 32.6251 88.6095 32.6894C88.7114 32.7538 88.8306 32.7854 88.951 32.78C89.077 32.7834 89.2015 32.7523 89.311 32.69C89.4121 32.6267 89.4895 32.5318 89.531 32.42C89.5825 32.2827 89.6063 32.1365 89.601 31.99V31.21H91.271V32C91.2947 32.4591 91.2126 32.9176 91.031 33.34C90.8575 33.6952 90.5826 33.9909 90.241 34.19C89.8502 34.3808 89.421 34.48 88.986 34.48C88.5511 34.48 88.1218 34.3808 87.731 34.19H87.701Z" fill="#1A4E87"/>
<path d="M91.6611 24.71H96.5011V26.29H91.6611V24.71ZM93.2511 25.52H94.9011V34.38H93.2511V25.52Z" fill="#1A4E87"/>
<path d="M97.2812 24.71H98.9313V34.38H97.2812V24.71ZM98.0113 24.71H101.571V26.32H98.0312L98.0113 24.71ZM98.0113 28.77H101.241V30.38H98.0312L98.0113 28.77ZM98.0113 32.77H101.571V34.38H98.0312L98.0113 32.77Z" fill="#1A4E87"/>
<path d="M107.252 24.71H108.792V34.38H107.322V27.63L107.422 28.06L106.032 32.67H105.202L103.802 28.19L103.932 27.63V34.38H102.432V24.71H104.032L105.612 30L107.252 24.71Z" fill="#1A4E87"/>
<path d="M111.682 24.71H112.842L115.142 34.38H113.512L112.262 28L111.032 34.38H109.392L111.682 24.71ZM110.942 31.33H113.572V32.87H110.942V31.33Z" fill="#1A4E87"/>
<path d="M118.102 24.71H119.832L121.122 31.9L120.032 33L118.102 24.71ZM121.732 32.71C121.671 33.0432 121.534 33.358 121.332 33.63C121.135 33.8902 120.872 34.0938 120.572 34.22C120.257 34.3598 119.916 34.4313 119.572 34.43H118.892V32.82H119.572C119.738 32.8235 119.901 32.7783 120.042 32.69C120.188 32.5989 120.309 32.4714 120.392 32.32C120.496 32.1427 120.561 31.9448 120.582 31.74L121.742 24.74H123.402L121.732 32.71Z" fill="#1A4E87"/>
<path d="M123.951 24.71H125.591V34.38H123.951V24.71ZM124.811 24.71H127.891V26.29H124.811V24.71ZM126.901 24.71H128.551V34.38H126.901V24.71Z" fill="#1A4E87"/>
<path d="M129.731 24.7099H131.381V34.38H129.731V24.7099ZM130.501 29.0499H132.211C132.333 29.0536 132.452 29.0186 132.551 28.95C132.653 28.8843 132.733 28.7904 132.781 28.68C132.836 28.5467 132.863 28.4039 132.861 28.26V27.12C132.863 26.9663 132.836 26.8138 132.781 26.67C132.737 26.5571 132.661 26.4598 132.561 26.3899C132.456 26.3254 132.335 26.2909 132.211 26.29H130.501V24.7099H132.251C132.676 24.6994 133.097 24.7884 133.481 24.9699C133.815 25.1251 134.089 25.3849 134.261 25.7099C134.451 26.07 134.544 26.4731 134.531 26.8799V28.51C134.544 28.9072 134.451 29.3006 134.261 29.6499C134.082 29.9674 133.81 30.2222 133.481 30.3799C133.095 30.5521 132.675 30.6374 132.251 30.6299H130.501V29.0499Z" fill="#1A4E87"/>
<path d="M137.032 24.71H138.192L140.502 34.38H138.862L137.562 28L136.312 34.34H134.682L137.032 24.71ZM136.302 31.33H138.932V32.87H136.302V31.33Z" fill="#1A4E87"/>
<path d="M141.161 24.71H142.821V34.38H141.161V24.71ZM142.161 32.83H143.611C143.697 32.8346 143.783 32.822 143.863 32.7928C143.944 32.7636 144.018 32.7184 144.081 32.66C144.139 32.6008 144.184 32.5302 144.213 32.4528C144.242 32.3753 144.255 32.2927 144.251 32.21V30.91C144.258 30.7689 144.23 30.6283 144.171 30.5C144.126 30.3956 144.049 30.3081 143.951 30.25C143.838 30.1887 143.71 30.1577 143.581 30.16H142.161V28.63H143.541C143.627 28.6359 143.714 28.6219 143.793 28.5889C143.873 28.5559 143.944 28.505 144.001 28.44C144.114 28.2872 144.171 28.0999 144.161 27.91V26.91C144.167 26.7451 144.11 26.5842 144.001 26.46C143.941 26.4044 143.87 26.3616 143.792 26.3341C143.715 26.3066 143.633 26.295 143.551 26.3H142.161V24.71H143.711C144.098 24.6988 144.483 24.7811 144.831 24.95C145.135 25.0942 145.384 25.3327 145.541 25.63C145.709 25.9647 145.791 26.3357 145.781 26.71V27.71C145.785 27.9796 145.727 28.2464 145.611 28.49C145.502 28.7123 145.337 28.902 145.131 29.04C144.901 29.1898 144.642 29.2887 144.371 29.33C144.664 29.3636 144.947 29.4591 145.201 29.61C145.424 29.7523 145.604 29.9528 145.721 30.19C145.854 30.4461 145.919 30.7317 145.911 31.02V32.33C145.923 32.7076 145.84 33.0821 145.671 33.42C145.513 33.7154 145.269 33.9559 144.971 34.11C144.626 34.278 144.245 34.3603 143.861 34.35H142.161V32.83Z" fill="#1A4E87"/>
<path d="M146.671 32.81C146.785 32.8176 146.899 32.7933 147.001 32.74C147.089 32.6896 147.159 32.6126 147.201 32.52C147.245 32.3984 147.266 32.2693 147.261 32.14V24.71H148.911V32.22C148.924 32.6353 148.845 33.0483 148.681 33.43C148.532 33.7373 148.286 33.9868 147.981 34.14C147.612 34.3119 147.208 34.3942 146.801 34.38H146.671V32.81ZM148.361 24.71H150.871V26.29H148.361V24.71ZM149.961 24.71H151.611V34.38H149.961V24.71Z" fill="#1A4E87"/>
<path d="M152.791 24.71H154.441V34.38H152.791V24.71ZM153.521 24.71H157.091V26.32H153.521V24.71ZM153.521 28.77H156.751V30.38H153.521V28.77ZM153.521 32.77H157.091V34.38H153.521V32.77Z" fill="#1A4E87"/>
<path d="M157.941 24.71H159.581V34.38H157.941V24.71ZM158.721 28.84H161.961V30.39H158.721V28.84ZM160.891 24.71H162.541V34.38H160.891V24.71Z" fill="#1A4E87"/>
<path d="M167.111 34.37V27.79L167.251 27.99L165.031 34.37H163.701V24.71H165.201V31.35L165.051 31.15L167.271 24.71H168.591V34.37H167.111Z" fill="#1A4E87"/>
<path d="M170.761 30.3599C170.405 30.1837 170.109 29.9052 169.911 29.5599C169.714 29.17 169.618 28.7368 169.631 28.2999V26.8999C169.618 26.4855 169.714 26.075 169.911 25.7099C170.111 25.3789 170.408 25.1171 170.761 24.9599C171.177 24.7805 171.628 24.6951 172.081 24.7099H173.471V26.2899H172.321C172.126 26.2819 171.933 26.3268 171.761 26.4199C171.603 26.5045 171.477 26.6378 171.401 26.7999C171.316 26.9847 171.275 27.1867 171.281 27.3899V27.9399C171.276 28.1463 171.317 28.3512 171.401 28.5399C171.483 28.6981 171.608 28.8299 171.761 28.9199C171.934 29.0084 172.127 29.053 172.321 29.0499H173.471V30.6299H172.081C171.626 30.6437 171.174 30.5513 170.761 30.3599V30.3599ZM171.031 29.9999L172.591 30.3099L171.471 34.3599H169.631L171.031 29.9999ZM172.791 24.6899H174.441V34.3599H172.791V24.6899Z" fill="#1A4E87"/>
<path d="M76.141 48.27C75.7862 48.1044 75.4924 47.8315 75.301 47.49C75.0931 47.1177 74.9894 46.6963 75.001 46.27V41C74.9886 40.5705 75.0922 40.1456 75.301 39.77C75.4924 39.4285 75.7862 39.1557 76.141 38.99C76.9973 38.6436 77.9547 38.6436 78.811 38.99C79.1648 39.1609 79.4604 39.4322 79.661 39.77C79.8618 40.1483 79.9617 40.5719 79.951 41V46.32C79.9609 46.7449 79.861 47.1651 79.661 47.54C79.4604 47.8779 79.1648 48.1491 78.811 48.32C78.3884 48.498 77.9345 48.5896 77.476 48.5896C77.0175 48.5896 76.5636 48.498 76.141 48.32V48.27ZM77.911 46.79C78.0327 46.7255 78.1308 46.6239 78.191 46.5C78.2555 46.359 78.2863 46.205 78.281 46.05V41.15C78.2842 40.9952 78.2535 40.8416 78.191 40.7C78.1302 40.579 78.032 40.4808 77.911 40.42C77.7793 40.3485 77.6307 40.3139 77.481 40.32C77.3281 40.3141 77.1763 40.3486 77.041 40.42C76.9249 40.4841 76.8308 40.5817 76.771 40.7C76.7085 40.8416 76.6778 40.9952 76.681 41.15V46.05C76.6757 46.205 76.7065 46.359 76.771 46.5C76.8307 46.621 76.9246 46.7218 77.041 46.79C77.1763 46.8615 77.3281 46.896 77.481 46.89C77.6307 46.8961 77.7793 46.8616 77.911 46.79V46.79Z" fill="#1A4E87"/>
<path d="M81.0312 38.78H82.6813V48.44H81.0312V38.78ZM81.8712 46.86H83.3313C83.4864 46.863 83.6391 46.8213 83.7712 46.74C83.8876 46.6528 83.9775 46.5351 84.0312 46.4C84.1035 46.2365 84.1377 46.0587 84.1312 45.88V45.11C84.1376 44.9217 84.1035 44.7341 84.0312 44.56C83.9751 44.4206 83.8774 44.3018 83.7513 44.22C83.6198 44.1371 83.4666 44.0953 83.3112 44.1H81.8412V42.52H83.6312C84.0367 42.5093 84.4385 42.5986 84.8012 42.78C85.1206 42.9507 85.3792 43.2162 85.5413 43.54C85.7229 43.9134 85.812 44.325 85.8012 44.74V46.27C85.8099 46.6753 85.7208 47.0766 85.5413 47.44C85.3753 47.756 85.1172 48.0141 84.8012 48.18C84.4378 48.3595 84.0365 48.4487 83.6312 48.44H81.8412L81.8712 46.86ZM82.0312 38.78H85.4013V40.36H82.0312V38.78Z" fill="#1A4E87"/>
<path d="M86.8115 38.78H88.4615V48.44H86.8115V38.78ZM87.5815 43.11H89.2915C89.4144 43.1137 89.5357 43.0825 89.6415 43.02C89.7407 42.9502 89.8171 42.8529 89.8615 42.74C89.9204 42.6082 89.9478 42.4643 89.9415 42.32V41.18C89.9468 41.0302 89.9231 40.8808 89.8715 40.74C89.8267 40.6219 89.7464 40.5205 89.6415 40.45C89.5362 40.3865 89.4145 40.3552 89.2915 40.36H87.5815V38.78H89.3415C89.7654 38.7667 90.1865 38.8523 90.5715 39.03C90.9027 39.1887 91.1756 39.4476 91.3515 39.77C91.531 40.1335 91.6202 40.5348 91.6115 40.94V42.57C91.6232 42.9703 91.5301 43.3667 91.3415 43.72C91.1618 44.0346 90.8894 44.286 90.5615 44.44C90.1798 44.6169 89.7621 44.7025 89.3415 44.69H87.5815V43.11Z" fill="#1A4E87"/>
<path d="M94.0317 38.78H95.2317L97.5317 48.44H95.9017L94.6517 42.11L93.4017 48.44H91.7617L94.0317 38.78ZM93.2917 45.39H95.9217V46.94H93.3317L93.2917 45.39Z" fill="#1A4E87"/>
<path d="M99.3012 48.27C98.9335 48.0987 98.6266 47.8197 98.4212 47.47C98.2121 47.0909 98.1084 46.6627 98.1212 46.23V45.76H99.7712V46.17C99.7655 46.2784 99.7841 46.3868 99.8256 46.4871C99.8672 46.5874 99.9305 46.6773 100.011 46.75C100.204 46.901 100.446 46.9758 100.691 46.96C100.806 46.9664 100.922 46.9493 101.03 46.9098C101.138 46.8702 101.237 46.8091 101.321 46.73C101.481 46.5483 101.563 46.3115 101.551 46.07V45C101.563 44.7757 101.492 44.5549 101.351 44.38C101.28 44.3069 101.194 44.2496 101.099 44.2117C101.005 44.1738 100.903 44.1562 100.801 44.16H99.6012V42.62H100.801C100.88 42.6252 100.959 42.6136 101.033 42.5861C101.107 42.5585 101.175 42.5155 101.231 42.46C101.341 42.3368 101.399 42.1752 101.391 42.01V41C101.398 40.9018 101.384 40.8034 101.351 40.7106C101.319 40.6178 101.268 40.5326 101.201 40.46C101.133 40.3931 101.051 40.3415 100.962 40.3088C100.872 40.276 100.776 40.2628 100.681 40.27C100.48 40.26 100.283 40.3281 100.131 40.46C100.062 40.5333 100.009 40.6198 99.9745 40.7144C99.9401 40.809 99.9254 40.9095 99.9312 41.01V41.48H98.2812V41C98.2657 40.5618 98.3657 40.1273 98.5712 39.74C98.7662 39.3953 99.0631 39.1194 99.4212 38.95C99.8381 38.7596 100.293 38.6672 100.751 38.68C101.198 38.6748 101.639 38.785 102.031 39C102.37 39.1745 102.647 39.4508 102.821 39.79C102.982 40.1721 103.054 40.586 103.031 41V42C103.025 42.2496 102.956 42.4937 102.831 42.71C102.688 42.9636 102.498 43.1876 102.271 43.37C102.561 43.4987 102.801 43.7203 102.951 44C103.114 44.308 103.196 44.6518 103.191 45V46C103.203 46.4602 103.103 46.9163 102.901 47.33C102.71 47.6997 102.405 47.9978 102.031 48.18C101.611 48.3828 101.148 48.4823 100.681 48.47C100.212 48.503 99.7415 48.4348 99.3012 48.27V48.27Z" fill="#1A4E87"/>
<path d="M105.161 48.27C104.804 48.1044 104.507 47.8318 104.311 47.49C104.11 47.1158 104.014 46.6944 104.031 46.27V41C104.015 40.5714 104.116 40.1464 104.321 39.77C104.517 39.4282 104.814 39.1556 105.171 38.99C106.024 38.6431 106.979 38.6431 107.831 38.99C108.185 39.1609 108.481 39.4321 108.681 39.77C108.879 40.1492 108.975 40.5728 108.961 41V46.32C108.971 46.7448 108.871 47.165 108.671 47.54C108.471 47.8778 108.175 48.1491 107.821 48.32C107.401 48.4982 106.948 48.5901 106.491 48.5901C106.034 48.5901 105.582 48.4982 105.161 48.32V48.27ZM106.921 46.79C107.045 46.7279 107.144 46.6256 107.201 46.5C107.266 46.359 107.297 46.2049 107.291 46.05V41.15C107.295 40.9952 107.264 40.8416 107.201 40.7C107.143 40.5772 107.044 40.4783 106.921 40.42C106.787 40.356 106.64 40.3228 106.491 40.3228C106.343 40.3228 106.196 40.356 106.061 40.42C105.943 40.484 105.845 40.5813 105.781 40.7C105.719 40.8416 105.688 40.9952 105.691 41.15V46.05C105.686 46.2049 105.717 46.359 105.781 46.5C105.845 46.6217 105.942 46.7224 106.061 46.79C106.196 46.854 106.343 46.8872 106.491 46.8872C106.64 46.8872 106.787 46.854 106.921 46.79V46.79Z" fill="#1A4E87"/>
<path d="M110.031 38.78H111.691V48.44H110.031V38.78ZM111.031 46.89H112.471C112.558 46.8967 112.645 46.8861 112.727 46.8586C112.81 46.8311 112.886 46.7874 112.951 46.73C113.009 46.6689 113.054 46.5966 113.084 46.5175C113.113 46.4384 113.126 46.3542 113.121 46.27V45C113.124 44.8592 113.096 44.7195 113.041 44.59C112.996 44.4799 112.915 44.3884 112.811 44.33C112.702 44.2677 112.577 44.2365 112.451 44.24H111.031V42.69H112.411C112.496 42.6951 112.58 42.6806 112.659 42.6477C112.737 42.6147 112.806 42.5642 112.861 42.5C112.982 42.3507 113.043 42.1617 113.031 41.97V40.97C113.036 40.8858 113.023 40.8015 112.994 40.7224C112.964 40.6434 112.919 40.5711 112.861 40.51C112.801 40.4544 112.73 40.4116 112.653 40.3841C112.575 40.3566 112.493 40.345 112.411 40.35H111.031V38.78H112.581C112.968 38.7668 113.351 38.8457 113.701 39.01C114.002 39.1548 114.248 39.3934 114.401 39.69C114.577 40.0221 114.663 40.3944 114.651 40.77V41.77C114.655 42.0364 114.597 42.3001 114.481 42.54C114.372 42.7623 114.207 42.952 114.001 43.09C113.773 43.2424 113.513 43.3415 113.241 43.38C113.535 43.417 113.818 43.5158 114.071 43.67C114.294 43.8087 114.473 44.0059 114.591 44.24C114.716 44.4984 114.778 44.7829 114.771 45.07V46.38C114.783 46.7576 114.7 47.1321 114.531 47.47C114.378 47.7694 114.133 48.0114 113.831 48.16C113.489 48.3279 113.112 48.4103 112.731 48.4H111.031V46.89Z" fill="#1A4E87"/>
<path d="M117.361 38.78H118.521L120.821 48.44H119.191L117.941 42.11L116.691 48.44H115.031L117.361 38.78ZM116.621 45.39H119.261V46.94H116.621V45.39Z" fill="#1A4E87"/>
<path d="M121.541 38.78H123.191V48.44H121.541V38.78ZM122.321 42.9H125.561V44.45H122.321V42.9ZM124.491 38.78H126.141V48.44H124.491V38.78Z" fill="#1A4E87"/>
<path d="M130.711 48.43V41.85L130.861 42.05L128.651 48.43H127.321V38.78H128.821V45.41L128.671 45.21L130.901 38.78H132.211V48.43H130.711Z" fill="#1A4E87"/>
<path d="M133.402 38.78H135.032V48.44H133.392L133.402 38.78ZM134.132 38.78H137.692V40.38H134.132V38.78ZM134.132 42.84H137.362V44.44H134.132V42.84ZM134.132 46.84H137.692V48.45H134.132V46.84Z" fill="#1A4E87"/>
<path d="M143.361 38.78H144.911V48.44H143.441V41.69L143.541 42.12L142.131 46.73H141.311L139.911 42.25L140.041 41.69V48.44H138.541V38.78H140.121L141.721 44.03L143.361 38.78Z" fill="#1A4E87"/>
<path d="M60 9.31421L53.554 46.3035C53.554 46.3035 11.4315 38.1668 0 60C11.2891 35.4733 50.98 40.2069 50.98 40.2069L55.301 11.3616H51.3926V8.85196C55.7136 8.22409 60 9.31421 60 9.31421Z" fill="#FF6C6C"/>
<path d="M23.6222 21.8387L23.3904 33.7153C21.6999 34.1557 19.9803 34.6507 18.2552 35.2185L18.5253 21.7641L23.6222 21.8387Z" fill="#FF6C6C"/>
<path d="M32.8598 14.459L32.5258 31.8481C30.8992 32.101 29.1795 32.4086 27.4142 32.7817L27.7794 14.3826L32.8598 14.459Z" fill="#FF6C6C"/>
<path d="M42.115 6.32956L41.6221 30.8198C40.1909 30.9181 38.4603 31.071 36.5106 31.3003L37.0072 6.25313L42.115 6.32956Z" fill="#FF6C6C"/>
<path d="M50.0599 0L47.8948 37.6554C47.8948 37.6554 8.83743 34.6544 0 58.0545C8.39748 32.0064 44.649 32.0064 44.649 32.0064L45.7316 3.76535C45.7316 3.76535 11.9062 4.70624 1.52067 23.2418C1.4641 23.3689 1.42481 23.5029 1.40384 23.6404C1.435 23.2836 1.50853 22.9317 1.6229 22.5921C12.4483 0 50.0599 0 50.0599 0Z" fill="#1A4E87"/>
</svg>
