<svg width="222" height="58" viewBox="0 0 222 58" fill="none" xmlns="http://www.w3.org/2000/svg">
<path d="M62.0148 9.00408L55.3515 44.7601C55.3515 44.7601 11.8151 36.8952 0 58C11.6682 34.2899 52.6937 38.8663 52.6937 38.8663L57.1569 10.983H53.1136V8.55584C57.5831 7.951 62.0148 9.00408 62.0148 9.00408Z" fill="#FF6C6C"/>
<path d="M24.4154 21.1146L24.174 32.5948C22.4274 33.0195 20.6492 33.4991 18.869 34.0491L19.1482 21.0422L24.4154 21.1146Z" fill="#FF6C6C"/>
<path d="M33.9696 13.9779L33.6169 30.7881C31.9374 31.0328 30.1593 31.3303 28.3244 31.6924L28.7023 13.8976L33.9696 13.9779Z" fill="#FF6C6C"/>
<path d="M43.5279 6.11887L43.0283 29.8035C41.5483 29.8975 39.7596 30.0462 37.7442 30.2674L38.2565 6.05427L43.5279 6.11887Z" fill="#FF6C6C"/>
<path d="M51.7406 0L49.5027 36.4078C49.5027 36.4078 9.13427 33.4991 0 56.115C8.67032 30.9388 46.1479 30.9388 46.1479 30.9388L47.2648 3.64078C47.2648 3.64078 12.3064 4.54902 1.57241 22.4671C1.51298 22.5919 1.47201 22.7236 1.45065 22.8586C1.48272 22.5114 1.55955 22.169 1.67948 21.8388C12.8648 0 51.7406 0 51.7406 0Z" fill="#1A4E87"/>
<path d="M77.846 10.294H79.5654V19.6348H77.8565L77.846 10.294ZM78.7256 18.106H80.2687C80.4275 18.11 80.5842 18.0713 80.72 17.9945C80.8496 17.9149 80.9516 17.802 81.0139 17.6695C81.0858 17.5091 81.1208 17.3364 81.1168 17.1626V16.4168C81.122 16.2367 81.0877 16.0576 81.016 15.8903C80.9574 15.7537 80.8556 15.637 80.7242 15.5555C80.5873 15.4772 80.4292 15.4371 80.2687 15.44H78.7256V13.9113H80.5794C80.9997 13.8996 81.4164 13.9871 81.7907 14.1658C82.1224 14.3301 82.391 14.5866 82.5591 14.8998C82.7441 15.2583 82.8341 15.6531 82.8215 16.0508V17.5286C82.8335 17.921 82.7419 18.3102 82.5549 18.6619C82.3841 18.9705 82.1149 19.2222 81.7844 19.3823C81.4087 19.5547 80.9937 19.6393 80.5752 19.6289H78.7256V18.106ZM78.8768 10.294H82.3764V11.8228H78.8726L78.8768 10.294Z" fill="#1A4E87"/>
<path d="M87.3876 19.6289V13.2693L87.5408 13.465L85.2525 19.6328H83.8754V10.294H85.431V16.7065L85.2735 16.5108L87.5828 10.2921H88.9474V19.6269L87.3876 19.6289Z" fill="#1A4E87"/>
<path d="M90.0349 18.1256C90.1528 18.1296 90.2699 18.1053 90.3749 18.0551C90.4657 18.0065 90.536 17.9306 90.5744 17.8398C90.622 17.7237 90.6441 17.5999 90.6395 17.4757V10.294H92.3483V17.554C92.3641 17.954 92.283 18.352 92.1111 18.7187C91.9615 19.0185 91.7058 19.2611 91.3868 19.4058C91.0044 19.5701 90.5859 19.6485 90.165 19.6348H90.0349V18.1256ZM91.7836 10.296H94.3805V11.8228H91.7836V10.296ZM93.4442 10.296H95.1531V19.6367H93.4442V10.296Z" fill="#1A4E87"/>
<path d="M99.8934 19.6289V13.2693L100.045 13.465L97.7563 19.6328H96.3791V10.294H97.9368V16.7065L97.7773 16.5108L100.087 10.2921H101.449V19.6269L99.8934 19.6289Z" fill="#1A4E87"/>
<path d="M107.678 10.294H109.275V19.6348H107.753V13.1146L107.856 13.5257L106.403 17.9847H105.549L104.094 13.6549L104.233 13.1146V19.6348H102.677V10.294H104.317L105.975 15.3696L107.678 10.294Z" fill="#1A4E87"/>
<path d="M113.342 10.294H115.044V19.6348H113.338L113.342 10.294ZM114.215 18.106H115.758C115.917 18.1103 116.074 18.0715 116.21 17.9945C116.34 17.9155 116.442 17.8024 116.503 17.6695C116.576 17.5094 116.611 17.3365 116.606 17.1626V16.4168C116.611 16.2369 116.577 16.058 116.508 15.8903C116.448 15.7536 116.346 15.6369 116.214 15.5555C116.077 15.4766 115.919 15.4365 115.758 15.44H114.215V13.9113H116.069C116.49 13.9002 116.907 13.9877 117.282 14.1658C117.613 14.3312 117.881 14.5875 118.051 14.8998C118.235 15.2585 118.326 15.653 118.315 16.0508V17.5286C118.327 17.9208 118.236 18.3097 118.051 18.6619C117.879 18.9707 117.609 19.2223 117.278 19.3823C116.902 19.5547 116.487 19.6393 116.069 19.6289H114.215V18.106ZM114.368 10.294H117.868V11.8228H114.368V10.294Z" fill="#1A4E87"/>
<path d="M119.369 10.294H121.078V19.6348H119.369V10.294ZM120.127 10.294H123.82V11.8502H120.127V10.294ZM120.127 14.2206H123.475V15.7669H120.127V14.2206ZM120.127 18.0806H123.82V19.6348H120.127V18.0806Z" fill="#1A4E87"/>
<path d="M124.701 10.294H126.41V19.6348H124.701V10.294ZM125.501 14.4848H127.271C127.398 14.4882 127.522 14.4569 127.63 14.3948C127.734 14.3307 127.815 14.2395 127.863 14.1325C127.922 14.0027 127.951 13.8625 127.947 13.7214V12.6194C127.951 12.4731 127.923 12.3275 127.867 12.1907C127.822 12.0797 127.741 11.9842 127.636 11.9167C127.527 11.8519 127.4 11.8191 127.271 11.8228H125.501V10.294H127.319C127.759 10.2831 128.195 10.3668 128.594 10.5387C128.937 10.6913 129.22 10.9423 129.4 11.2551C129.593 11.6052 129.687 11.9951 129.675 12.3884V13.9544C129.689 14.3431 129.593 14.7285 129.398 15.0721C129.212 15.3781 128.929 15.6229 128.587 15.7728C128.192 15.9407 127.762 16.023 127.328 16.0136H125.51L125.501 14.4848Z" fill="#1A4E87"/>
<path d="M134.037 16.0508V19.6289H132.328V16.0508L130.454 10.294H132.232L133.168 14.1619L134.065 10.294H135.843L134.037 16.0508Z" fill="#1A4E87"/>
<path d="M139.412 16.0508V19.6289H137.703V16.0508L135.828 10.294H137.606L138.542 14.1619L139.439 10.294H141.215L139.412 16.0508Z" fill="#1A4E87"/>
<path d="M141.683 10.294H143.386V19.6348H141.677L141.683 10.294ZM142.498 14.2891H145.857V15.7865H142.498V14.2891ZM144.744 10.2999H146.451V19.6406H144.744V10.2999Z" fill="#1A4E87"/>
<path d="M150.708 16.0508V19.6289H149.001V16.0508L147.127 10.2881H148.905L149.841 14.156L150.733 10.294H152.509L150.708 16.0508Z" fill="#1A4E87"/>
<path d="M77.846 23.8804H79.5654V33.2212H77.8565L77.846 23.8804ZM78.7256 31.71H80.2687C80.4278 31.7144 80.5848 31.6749 80.72 31.5965C80.85 31.5182 80.9522 31.4058 81.0139 31.2735C81.086 31.1125 81.121 30.9391 81.1168 30.7646V30.0208C81.122 29.8407 81.0877 29.6615 81.016 29.4942C80.958 29.3574 80.8561 29.2405 80.7242 29.1595C80.5873 29.0812 80.4292 29.0411 80.2687 29.044H78.7256V27.5153H80.5794C80.9997 27.5036 81.4164 27.5911 81.7907 27.7698C82.1224 27.9341 82.391 28.1906 82.5591 28.5038C82.7465 28.8638 82.838 29.2606 82.8257 29.6606V31.1228C82.8377 31.5152 82.7461 31.9044 82.5591 32.2562C82.3883 32.5648 82.1191 32.8164 81.7886 32.9765C81.4129 33.1489 80.9979 33.2335 80.5794 33.2231H78.7256V31.71ZM78.8726 23.8804H82.3722V25.4091H78.8726V23.8804Z" fill="#1A4E87"/>
<path d="M85.5758 23.8804H86.7746L89.1657 33.2212H87.4715L86.1762 27.1003L84.8809 33.2212H83.1868L85.5758 23.8804ZM84.8138 30.287H87.5429V31.7766H84.8138V30.287Z" fill="#1A4E87"/>
<path d="M89.911 23.8804H91.4729V33.2211H89.911V23.8804ZM90.8599 31.71H95.3105V33.2388H90.8599V31.71ZM92.1615 23.8804H93.7255V33.2211H92.1615V23.8804ZM94.4897 23.8804H96.0537V33.2211H94.4918L94.4897 23.8804Z" fill="#1A4E87"/>
<path d="M97.2818 23.8804H98.9907V33.2212H97.2818V23.8804ZM98.0397 27.8265H100.691V29.3611H98.0397V27.8265ZM99.7905 29.093L101.243 28.173L102.937 33.229H101.132L99.7905 29.093ZM99.8304 28.1358L100.769 23.8804H102.526L101.122 29.232L99.8304 28.1358Z" fill="#1A4E87"/>
<path d="M105.314 23.8804H106.513L108.904 33.2212H107.21L105.914 27.1003L104.619 33.2212H102.925L105.314 23.8804ZM104.548 30.287H107.277V31.7766H104.548V30.287Z" fill="#1A4E87"/>
<path d="M109.649 23.8804H111.356V33.2212H109.649V23.8804ZM110.447 28.0693H112.219C112.345 28.0724 112.469 28.0411 112.576 27.9792C112.68 27.9155 112.762 27.8242 112.811 27.7169C112.868 27.586 112.896 27.4454 112.893 27.3039V26.2058C112.896 26.0589 112.87 25.9127 112.815 25.7752C112.769 25.6649 112.689 25.57 112.584 25.5031C112.475 25.4388 112.348 25.4061 112.219 25.4091H110.447V23.8804H112.267C112.706 23.8697 113.142 23.9534 113.541 24.1251C113.884 24.2788 114.166 24.5295 114.347 24.8415C114.539 25.1918 114.634 25.5815 114.622 25.9748V27.5408C114.635 27.9265 114.539 28.3085 114.343 28.6486C114.16 28.9594 113.876 29.2087 113.533 29.3611C113.138 29.5295 112.707 29.6118 112.273 29.6019H110.447V28.0693Z" fill="#1A4E87"/>
<path d="M115.987 23.8804H117.784L119.115 30.8312L118.025 31.8784L115.987 23.8804ZM119.749 31.6591C119.684 31.9834 119.541 32.2894 119.329 32.5537C119.124 32.802 118.855 32.9974 118.546 33.1213C118.205 33.257 117.836 33.3238 117.465 33.3171H116.766V31.7179H117.467C117.641 31.7209 117.812 31.6774 117.96 31.5926C118.111 31.5026 118.235 31.3787 118.321 31.2324C118.424 31.0602 118.492 30.8717 118.521 30.6765L119.72 23.8804H121.443L119.749 31.6591Z" fill="#1A4E87"/>
<path d="M122.222 23.8804H124.019L125.35 30.8312L124.261 31.8784L122.222 23.8804ZM125.984 31.6591C125.92 31.9837 125.777 32.2899 125.564 32.5537C125.359 32.802 125.09 32.9974 124.781 33.1213C124.44 33.257 124.071 33.3238 123.7 33.3171H123.001V31.7179H123.702C123.876 31.7209 124.047 31.6774 124.195 31.5926C124.346 31.5026 124.47 31.3787 124.557 31.2324C124.663 31.0609 124.734 30.8724 124.766 30.6765L125.961 23.8804H127.685L125.984 31.6591Z" fill="#1A4E87"/>
<path d="M128.285 23.8804H129.992V33.2212H128.285V23.8804ZM129.097 27.8696H132.456V29.367H129.097V27.8696ZM131.344 23.8804H133.051V33.2212H131.344V23.8804Z" fill="#1A4E87"/>
<path d="M134.037 23.8804H135.828L137.159 30.8312L136.069 31.8784L134.037 23.8804ZM137.799 31.6591C137.736 31.9837 137.592 32.2899 137.379 32.5537C137.175 32.802 136.906 32.9974 136.598 33.1213C136.256 33.2569 135.887 33.3235 135.515 33.3171H134.814V31.7179H135.515C135.689 31.7209 135.86 31.6774 136.009 31.5926C136.159 31.5026 136.283 31.3787 136.37 31.2324C136.475 31.0605 136.546 30.8722 136.58 30.6765L137.772 23.8804H139.493L137.799 31.6591Z" fill="#1A4E87"/>
<path d="M140.1 23.8804H141.809V33.2212H140.1V23.8804ZM140.913 27.8696H144.272V29.367H140.913V27.8696ZM143.159 23.8804H144.868V33.2212H143.159V23.8804Z" fill="#1A4E87"/>
<path d="M153.933 23.8804H155.532V33.2212H154.008V26.7089L154.113 27.1199L152.658 31.5789H151.804L150.351 27.2491L150.488 26.7089V33.229H148.932V23.8804H150.572L152.232 28.9697L153.933 23.8804Z" fill="#1A4E87"/>
<path d="M158.528 23.8804H159.727L162.118 33.2212H160.424L159.131 27.1082L157.835 33.229H156.139L158.528 23.8804ZM157.764 30.2792H160.493V31.7688H157.764V30.2792Z" fill="#1A4E87"/>
<path d="M164.908 23.8804H166.107L168.498 33.2212H166.804L165.509 27.1003L164.213 33.2212H162.517L164.908 23.8804ZM164.144 30.2792H166.873V31.7688H164.144V30.2792Z" fill="#1A4E87"/>
<path d="M169.38 31.7198C169.498 31.7243 169.615 31.7 169.72 31.6494C169.814 31.6023 169.889 31.5263 169.93 31.434C169.976 31.3177 169.998 31.1941 169.995 31.07V23.8804H171.704V31.1404C171.72 31.5438 171.639 31.9454 171.464 32.3149C171.315 32.6142 171.06 32.8567 170.742 33.0019C170.359 33.1663 169.94 33.2447 169.518 33.2309H169.388L169.38 31.7198ZM171.129 23.8902H173.728V25.4189H171.129V23.8902ZM172.789 23.8902H174.498V33.2309H172.789V23.8902Z" fill="#1A4E87"/>
<path d="M175.716 23.8804H177.425V33.2211H175.716V23.8804ZM176.599 31.71H177.901C178.06 31.7146 178.217 31.6751 178.352 31.5965C178.483 31.5187 178.585 31.4062 178.646 31.2735C178.719 31.1127 178.754 30.9392 178.749 30.7646V30.0208C178.754 29.8407 178.72 29.6615 178.648 29.4942C178.591 29.357 178.489 29.2399 178.357 29.1595C178.22 29.0806 178.062 29.0405 177.901 29.044H176.599V27.5153H178.212C178.633 27.5042 179.05 27.5917 179.425 27.7698C179.756 27.9352 180.024 28.1915 180.194 28.5038C180.379 28.8643 180.47 29.2609 180.458 29.6606V31.1228C180.47 31.515 180.379 31.9039 180.194 32.2561C180.022 32.5649 179.752 32.8165 179.421 32.9765C179.045 33.1489 178.63 33.2335 178.212 33.2231H176.599V31.71ZM182.602 33.2388H180.893V23.8804H182.602V33.2388Z" fill="#1A4E87"/>
<path d="M188.692 23.8804H190.289V33.2212H188.767V26.7089L188.87 27.1199L187.415 31.5789H186.563L185.108 27.2491L185.247 26.7089V33.229H183.693V23.8804H185.333L186.989 28.9697L188.692 23.8804Z" fill="#1A4E87"/>
<path d="M193.285 23.8804H194.484L196.875 33.2212H195.181L193.885 27.1003L192.59 33.2212H190.896L193.285 23.8804ZM192.521 30.2792H195.25V31.7688H192.521V30.2792Z" fill="#1A4E87"/>
<path d="M196.655 23.8804H201.67V25.4091H196.655V23.8804ZM198.309 24.6634H200.018V33.2192H198.309V24.6634Z" fill="#1A4E87"/>
<path d="M202.552 23.8804H207.567V25.4091H202.552V23.8804ZM204.206 24.6634H205.915V33.2192H204.206V24.6634Z" fill="#1A4E87"/>
<path d="M208.382 23.8804H210.088V33.2211H208.382V23.8804ZM209.255 31.71H210.565C210.724 31.714 210.881 31.6745 211.016 31.5965C211.146 31.5181 211.247 31.4057 211.308 31.2735C211.381 31.1127 211.416 30.9392 211.411 30.7646V30.0208C211.415 29.8409 211.382 29.662 211.312 29.4942C211.253 29.3572 211.151 29.2404 211.018 29.1595C210.882 29.0808 210.725 29.0407 210.565 29.044H209.261V27.5153H210.873C211.294 27.5036 211.712 27.5911 212.087 27.7698C212.419 27.9341 212.687 28.1906 212.855 28.5038C213.041 28.8643 213.132 29.2609 213.12 29.6606V31.1228C213.131 31.515 213.041 31.9039 212.855 32.2561C212.684 32.5653 212.414 32.817 212.083 32.9765C211.707 33.1489 211.292 33.2335 210.873 33.2231H209.261L209.255 31.71ZM215.257 33.2388H213.548V23.8804H215.257V33.2388Z" fill="#1A4E87"/>
<path d="M216.344 23.8804H218.053V33.2212H216.344V23.8804ZM217.102 27.8187H219.756V29.3611H217.102V27.8187ZM218.853 29.0851L220.306 28.1652L222 33.2212H220.197L218.853 29.0851ZM218.893 28.128L219.823 23.8804H221.58L220.176 29.232L218.893 28.128Z" fill="#1A4E87"/>
<path d="M78.9566 46.6392C78.5983 46.4542 78.3102 46.1705 78.1316 45.8269C77.9311 45.4252 77.8333 44.9857 77.846 44.5428V39.7628C77.8336 39.32 77.9313 38.8805 78.1316 38.4788C78.3102 38.1351 78.5983 37.8514 78.9566 37.6664C79.36 37.4816 79.8035 37.3855 80.2529 37.3855C80.7024 37.3855 81.1459 37.4816 81.5493 37.6664C81.9091 37.8508 82.1971 38.1365 82.3722 38.4827C82.5718 38.8859 82.6687 39.3267 82.6556 39.7706V40.5184H80.9258V39.7667C80.9292 39.6265 80.9036 39.4869 80.8502 39.3557C80.8054 39.2458 80.7246 39.152 80.6193 39.0875C80.5088 39.0247 80.3813 38.9928 80.2519 38.9955C80.1254 38.9921 80.0005 39.0234 79.8929 39.0856C79.7884 39.1483 79.7076 39.24 79.662 39.3478C79.6061 39.4785 79.579 39.6183 79.5822 39.7589V44.5389C79.5787 44.6783 79.6059 44.8168 79.662 44.946C79.7084 45.0529 79.789 45.1438 79.8929 45.2064C80.0005 45.2685 80.1254 45.2998 80.2519 45.2964C80.3787 45.3023 80.5046 45.2745 80.6151 45.2162C80.7184 45.154 80.7978 45.0628 80.8418 44.9558C80.8957 44.8241 80.9214 44.6838 80.9174 44.5428V43.7912H82.6472V44.5428C82.6601 44.9867 82.5631 45.4275 82.3638 45.8308C82.1881 46.1761 81.9002 46.461 81.5409 46.6451C81.1375 46.8299 80.694 46.926 80.2445 46.926C79.7951 46.926 79.3516 46.8299 78.9482 46.6451L78.9566 46.6392Z" fill="#1A4E87"/>
<path d="M87.123 46.8173V40.4577L87.2763 40.6534L84.988 46.8212H83.6108V37.4824H85.1664V43.893L85.009 43.6972L87.3183 37.4785H88.6829V46.8134L87.123 46.8173Z" fill="#1A4E87"/>
<path d="M91.0131 46.6392C90.6549 46.4542 90.3667 46.1705 90.1881 45.8269C89.9876 45.4252 89.8899 44.9857 89.9026 44.5428V39.7628C89.8901 39.32 89.9878 38.8805 90.1881 38.4788C90.3667 38.1351 90.6549 37.8514 91.0131 37.6664C91.4165 37.4816 91.86 37.3855 92.3095 37.3855C92.759 37.3855 93.2024 37.4816 93.6058 37.6664C93.9656 37.8508 94.2537 38.1365 94.4288 38.4827C94.6283 38.8859 94.7253 39.3267 94.7122 39.7706V40.5184H92.9823V39.7667C92.9858 39.6265 92.9601 39.4869 92.9068 39.3557C92.862 39.2458 92.7812 39.152 92.6758 39.0875C92.5653 39.0247 92.4378 38.9928 92.3084 38.9955C92.1819 38.9921 92.0571 39.0234 91.9494 39.0856C91.8449 39.1483 91.7642 39.24 91.7185 39.3478C91.6627 39.4785 91.6355 39.6183 91.6388 39.7589V44.5389C91.6353 44.6783 91.6624 44.8168 91.7185 44.946C91.7636 45.0568 91.8452 45.1514 91.9516 45.2162C92.0592 45.2783 92.184 45.3096 92.3105 45.3062C92.4412 45.3106 92.5703 45.2793 92.6821 45.2162C92.7854 45.154 92.8648 45.0628 92.9089 44.9558C92.9628 44.8241 92.9884 44.6838 92.9844 44.5428V43.7912H94.7143V44.5428C94.7272 44.9867 94.6302 45.4275 94.4309 45.8308C94.2552 46.1761 93.9672 46.461 93.6079 46.6451C93.2045 46.8299 92.7611 46.926 92.3116 46.926C91.8621 46.926 91.4186 46.8299 91.0152 46.6451L91.0131 46.6392Z" fill="#1A4E87"/>
<path d="M95.1111 37.4824H100.126V39.0112H95.1111V37.4824ZM96.7654 38.2654H98.4742V46.8212H96.7654V38.2654Z" fill="#1A4E87"/>
<path d="M100.941 37.4824H102.658V46.8232H100.951L100.941 37.4824ZM101.697 37.4824H105.387V39.0366H101.697V37.4824ZM101.697 41.3973H105.045V42.9456H101.697V41.3973ZM101.697 45.2592H105.387V46.8134H101.697V45.2592Z" fill="#1A4E87"/>
<path d="M111.266 37.4824H112.863V46.8232H111.35V40.3031L111.452 40.7141L110.006 45.1711H109.145L107.697 40.8433L107.833 40.3031V46.8232H106.278V37.4824H107.907L109.565 42.558L111.266 37.4824Z" fill="#1A4E87"/>
<path d="M115.869 37.4824H117.068L119.453 46.8232H117.774L116.478 40.7004L115.183 46.8232H113.489L115.869 37.4824ZM115.105 43.8812H117.834V45.3708H115.105V43.8812Z" fill="#1A4E87"/>
<path d="M121.036 46.6392C120.679 46.4536 120.391 46.17 120.213 45.8269C120.011 45.4255 119.914 44.9858 119.927 44.5428V39.7628C119.914 39.3199 120.012 38.8802 120.213 38.4788C120.391 38.1356 120.679 37.852 121.036 37.6664C121.44 37.4823 121.884 37.3865 122.333 37.3865C122.783 37.3865 123.227 37.4823 123.631 37.6664C123.99 37.8513 124.278 38.1369 124.454 38.4827C124.653 38.8859 124.75 39.3267 124.737 39.7706V40.5184H123.007V39.7667C123.011 39.6265 122.985 39.4869 122.932 39.3557C122.887 39.2458 122.806 39.152 122.701 39.0875C122.59 39.0244 122.461 38.9925 122.331 38.9955C122.205 38.9924 122.081 39.0237 121.974 39.0856C121.869 39.1478 121.788 39.2397 121.743 39.3478C121.687 39.4782 121.659 39.6182 121.664 39.7589V44.5389C121.659 44.6783 121.686 44.8171 121.743 44.946C121.787 45.0567 121.867 45.1514 121.972 45.2162C122.079 45.278 122.203 45.3093 122.329 45.3062C122.46 45.3106 122.589 45.2793 122.701 45.2162C122.805 45.1546 122.885 45.0633 122.93 44.9558C122.983 44.8241 123.009 44.6838 123.005 44.5428V43.7912H124.735V44.5428C124.748 44.9867 124.651 45.4275 124.452 45.8308C124.275 46.1757 123.987 46.4604 123.629 46.6451C123.225 46.8292 122.781 46.925 122.331 46.925C121.882 46.925 121.438 46.8292 121.034 46.6451L121.036 46.6392Z" fill="#1A4E87"/>
<path d="M125.686 37.4824H127.395V46.8232H125.686V37.4824ZM126.561 45.2945H127.863C128.022 45.2988 128.179 45.2593 128.314 45.1809C128.444 45.1026 128.547 44.9903 128.608 44.858C128.681 44.6971 128.716 44.5236 128.711 44.349V43.6052C128.716 43.4251 128.682 43.246 128.61 43.0787C128.553 42.9414 128.451 42.8243 128.319 42.7439C128.182 42.6656 128.024 42.6255 127.863 42.6285H126.561V41.1056H128.174C128.594 41.0944 129.011 41.1812 129.387 41.3581C129.718 41.5208 129.988 41.7743 130.16 42.0843C130.347 42.4443 130.439 42.8411 130.426 43.2411V44.719C130.438 45.1114 130.347 45.5006 130.16 45.8523C129.99 46.1673 129.718 46.4242 129.383 46.5863C129.007 46.7588 128.592 46.8434 128.174 46.833H126.561V45.2945ZM132.561 46.8232H130.855V37.4824H132.561V46.8232Z" fill="#1A4E87"/>
</svg>
