<svg width="16" height="22" viewBox="0 0 16 22" fill="none" xmlns="http://www.w3.org/2000/svg">
<path fill-rule="evenodd" clip-rule="evenodd" d="M13.9428 7.53334H12.9524V5.55239C12.9524 2.81867 10.7337 0.600006 7.99998 0.600006C5.26627 0.600006 3.0476 2.81867 3.0476 5.55239H5.02855C5.02855 3.9082 6.35579 2.58096 7.99998 2.58096C9.64417 2.58096 10.9714 3.9082 10.9714 5.55239V7.53334H2.05712C0.967601 7.53334 0.0761719 8.42477 0.0761719 9.51429V19.4191C0.0761719 20.5086 0.967601 21.4 2.05712 21.4H13.9428C15.0324 21.4 15.9238 20.5086 15.9238 19.4191V9.51429C15.9238 8.42477 15.0324 7.53334 13.9428 7.53334ZM13.9428 19.4191H2.05707V9.5143H13.9428V19.4191ZM9.9809 14.4667C9.9809 15.5562 9.08947 16.4476 7.99994 16.4476C6.91042 16.4476 6.01899 15.5562 6.01899 14.4667C6.01899 13.3771 6.91042 12.4857 7.99994 12.4857C9.08947 12.4857 9.9809 13.3771 9.9809 14.4667Z" fill="white"/>
</svg>
