<svg width="70" height="70" viewBox="0 0 70 70" fill="none" xmlns="http://www.w3.org/2000/svg">
<path d="M70 10.8666L62.4797 54.0208C62.4797 54.0208 13.3368 44.5279 0 70C13.1707 41.3856 59.4767 46.908 59.4767 46.908L64.5179 13.2552H59.958V10.3273C64.9992 9.59483 70 10.8666 70 10.8666Z" fill="#FF6C6C"/>
<path d="M27.5595 25.4784L27.289 39.3344C25.3168 39.8483 23.3105 40.4258 21.2979 41.0882L21.6131 25.3914L27.5595 25.4784Z" fill="#FF6C6C"/>
<path d="M38.3366 16.8688L37.9468 37.1561C36.0492 37.4512 34.0429 37.81 31.9834 38.2453L32.4094 16.7797L38.3366 16.8688Z" fill="#FF6C6C"/>
<path d="M49.1352 7.38446L48.5601 35.9564C46.8903 36.0711 44.8713 36.2494 42.5967 36.517L43.176 7.29529L49.1352 7.38446Z" fill="#FF6C6C"/>
<path d="M58.4033 0L55.8773 43.9312C55.8773 43.9312 10.3103 40.4301 0 67.7302C9.79706 37.3408 52.0905 37.3408 52.0905 37.3408L53.3535 4.39291C53.3535 4.39291 13.8905 5.49061 1.77412 27.1155C1.70812 27.2637 1.66228 27.4201 1.63781 27.5804C1.67416 27.1641 1.75996 26.7536 1.89339 26.3575C14.5231 0 58.4033 0 58.4033 0Z" fill="#1A4E87"/>
</svg>
