<svg width="20" height="20" viewBox="0 0 20 20" fill="none" xmlns="http://www.w3.org/2000/svg">
<path d="M14.2892 1.12175C14.1938 1.0685 14.0777 1.06847 13.9824 1.12163C13.8305 1.20629 13.776 1.39807 13.8607 1.54994C15.4471 4.4047 15.4471 7.87624 13.8607 10.731C11.3254 15.293 5.5719 16.936 1.00989 14.4007C0.913826 14.3464 0.796349 14.3464 0.700202 14.4006C0.548761 14.486 0.495277 14.6781 0.580758 14.8295C2.36326 18.0195 5.73058 19.9971 9.38481 20C13.0377 19.9988 16.4039 18.0209 18.1828 14.8305C20.8932 9.96973 19.15 3.83211 14.2892 1.12175Z" fill="#004A51"/>
<path d="M8.13079 6.83343L8.44029 8.51534L8.74915 6.83406C9.07282 5.08068 9.26298 4.88988 11.016 4.56716L12.698 4.25767L11.0167 3.94881C9.26298 3.62546 9.07282 3.43466 8.74978 1.68191L8.44029 0L8.13142 1.68128C7.80776 3.43466 7.61759 3.62546 5.86453 3.94818L4.18262 4.25767L5.8639 4.56653C7.61759 4.88988 7.80776 5.08068 8.13079 6.83343Z" fill="#004A51"/>
<path d="M4.6679 13.1303L4.9774 14.8122L5.28626 13.1309C5.60992 11.3776 5.80009 11.1868 7.55316 10.864L9.23507 10.5545L7.55379 10.2457C5.80009 9.92233 5.60992 9.73154 5.28689 7.97879L4.9774 6.29688L4.66853 7.97816C4.34487 9.73154 4.1547 9.92233 2.40164 10.2451L0.719727 10.5545L2.40101 10.8634C4.1547 11.1868 4.34487 11.3776 4.6679 13.1303Z" fill="#004A51"/>
</svg>
