<svg width="24" height="24" viewBox="0 0 24 24" fill="none" xmlns="http://www.w3.org/2000/svg">
<path d="M9.93947 14.0619C7.64871 11.7712 7.13147 9.48043 7.01478 8.56264C6.98218 8.30887 7.06951 8.05437 7.25106 7.87409L9.10485 6.02112C9.37755 5.74859 9.42594 5.32387 9.22154 4.99698L6.26996 0.41381C6.04382 0.0518439 5.57952 -0.0787932 5.19782 0.112155L0.459474 2.34374C0.150809 2.49573 -0.0307442 2.82368 0.00430138 3.16595C0.252577 5.52457 1.28085 11.3226 6.97878 17.021C12.6767 22.7193 18.474 23.7472 20.8338 23.9955C21.1761 24.0305 21.504 23.849 21.656 23.5403L23.8876 18.8019C24.0778 18.4211 23.9481 17.958 23.5876 17.7315L19.0044 14.7807C18.6777 14.5761 18.253 14.6241 17.9803 14.8966L16.1273 16.7504C15.9471 16.9319 15.6926 17.0192 15.4388 16.9866C14.521 16.8699 12.2302 16.3527 9.93947 14.0619Z" fill="#688C90"/>
</svg>
