<svg width="20" height="20" viewBox="0 0 20 20" fill="none" xmlns="http://www.w3.org/2000/svg">
<path d="M5.64359 0.257423L0.257421 5.6436C0.0914056 5.80961 -6.10634e-07 6.03031 -6.00372e-07 6.26508C-5.90111e-07 6.49984 0.0914447 6.72055 0.257421 6.88653C0.423437 7.05254 0.64414 7.14398 0.878906 7.14398C1.11367 7.14398 1.33437 7.05254 1.50039 6.88656L2.10898 6.27797L6.26059 10.9638C6.05207 11.9263 6.07695 12.9324 6.33398 13.8834C6.61289 14.9155 7.16215 15.8629 7.92238 16.623C7.9773 16.678 8.05184 16.7089 8.12953 16.7089C8.20723 16.7089 8.28176 16.678 8.33668 16.623L11.8584 13.1013L18.0853 19.3282C18.5185 19.7614 19.0944 20 19.707 20C19.8688 20 20 19.8688 20 19.707C20 19.0944 19.7614 18.5185 19.3282 18.0853L13.1013 11.8584L16.623 8.33664C16.6802 8.27941 16.7089 8.20441 16.7089 8.12945C16.7089 8.05449 16.6803 7.97949 16.623 7.92227C15.8629 7.16207 14.9155 6.61285 13.8834 6.33391C12.9323 6.07688 11.9263 6.05199 10.9638 6.26051L6.27793 2.10891L6.88648 1.50035C7.0525 1.33434 7.14391 1.11363 7.14391 0.878868C7.14391 0.644104 7.05246 0.423361 6.88648 0.257423C6.72047 0.0914075 6.49976 -3.65237e-05 6.265 -3.65135e-05C6.03031 1.64376e-06 5.80961 0.0914476 5.64359 0.257423ZM18.9139 18.4996C19.1589 18.7445 19.3202 19.0507 19.3837 19.3837C19.0507 19.3202 18.7445 19.1588 18.4996 18.9139L12.2727 12.687L12.687 12.2727L18.9139 18.4996ZM15.9963 8.1348L8.1348 15.9963C6.91645 14.6462 6.43851 12.816 6.84676 11.0298L11.0299 6.84672C12.8161 6.43859 14.6463 6.91649 15.9963 8.1348ZM6.47223 0.671758C6.52758 0.727071 6.55801 0.800667 6.55801 0.878908C6.55801 0.957149 6.52754 1.03074 6.47219 1.08606L2.74336 4.81492C2.62898 4.92938 2.62891 5.11484 2.74336 5.22926C2.85777 5.34367 3.04328 5.34367 3.15766 5.22926L5.86289 2.52402L10.4552 6.59273L6.59277 10.4552L2.34117 5.65649C2.28758 5.59602 2.21144 5.56035 2.13074 5.55797C2.05 5.55551 1.97184 5.58649 1.91473 5.6436L1.08605 6.47227C1.0307 6.52758 0.957148 6.55805 0.878906 6.55805C0.800663 6.55805 0.727109 6.52758 0.671757 6.47223C0.616406 6.41691 0.585937 6.34332 0.585937 6.26508C0.585937 6.18684 0.616406 6.11324 0.671757 6.05793L6.05793 0.67172C6.11328 0.616409 6.18683 0.585939 6.26508 0.585939C6.34332 0.585939 6.41687 0.616407 6.47223 0.671758Z" fill="white"/>
</svg>
