<svg width="20" height="20" viewBox="0 0 20 20" fill="none" xmlns="http://www.w3.org/2000/svg">
<path d="M10 15C12.7614 15 15 12.7614 15 10C15 7.23858 12.7614 5 10 5C7.23858 5 5 7.23858 5 10C5 12.7614 7.23858 15 10 15Z" fill="white"/>
<path d="M13.4188 10.1518C13.2154 10.1518 13.0439 9.99418 13.0297 9.78821C12.9832 9.11086 12.7052 8.46047 12.2471 7.95688C12.102 7.79738 12.1137 7.55043 12.2732 7.40535C12.4327 7.26023 12.6796 7.27191 12.8247 7.4314C13.4007 8.06453 13.7502 8.88254 13.8088 9.73465C13.8236 9.94977 13.6612 10.1362 13.4461 10.151C13.4369 10.1515 13.4278 10.1518 13.4188 10.1518Z" fill="#004A51"/>
<path d="M13.4275 11.6349C13.3248 11.6349 13.2241 11.5931 13.1515 11.5204C13.0789 11.4478 13.0371 11.3471 13.0371 11.2444C13.0371 11.1418 13.0789 11.041 13.1515 10.9684C13.2241 10.8958 13.3249 10.854 13.4275 10.854C13.5306 10.854 13.6309 10.8958 13.7036 10.9684C13.7766 11.041 13.818 11.1418 13.818 11.2444C13.818 11.3471 13.7766 11.4478 13.7036 11.5204C13.631 11.5931 13.5306 11.6349 13.4275 11.6349Z" fill="#004A51"/>
<path d="M9.9998 3.3252C9.78418 3.3252 9.60938 3.15039 9.60938 2.93477V0.39043C9.60938 0.174805 9.78418 0 9.9998 0C10.2154 0 10.3902 0.174805 10.3902 0.39043V2.93477C10.3902 3.15039 10.2154 3.3252 9.9998 3.3252Z" fill="white"/>
<path d="M9.9998 20C9.78418 20 9.60938 19.8252 9.60938 19.6096V17.0652C9.60938 16.8496 9.78418 16.6748 9.9998 16.6748C10.2154 16.6748 10.3902 16.8496 10.3902 17.0652V19.6096C10.3902 19.8252 10.2154 20 9.9998 20Z" fill="white"/>
<path d="M19.6096 10.3905H17.0652C16.8496 10.3905 16.6748 10.2157 16.6748 10C16.6748 9.78442 16.8496 9.60962 17.0652 9.60962H19.6096C19.8252 9.60962 20 9.78442 20 10C20 10.2157 19.8252 10.3905 19.6096 10.3905Z" fill="white"/>
<path d="M2.93477 10.3905H0.39043C0.174805 10.3905 0 10.2157 0 10C0 9.78442 0.174805 9.60962 0.39043 9.60962H2.93477C3.15039 9.60962 3.3252 9.78442 3.3252 10C3.3252 10.2157 3.15039 10.3905 2.93477 10.3905Z" fill="white"/>
<path d="M14.9959 5.39455C14.896 5.39455 14.7961 5.35638 14.7198 5.28017C14.5674 5.12771 14.5674 4.88049 14.7198 4.72799L16.5189 2.92889C16.6714 2.77647 16.9186 2.77647 17.0711 2.92889C17.2236 3.08135 17.2236 3.32858 17.0711 3.48108L15.272 5.28017C15.1958 5.35642 15.0958 5.39455 14.9959 5.39455Z" fill="white"/>
<path d="M3.20485 17.1855C3.10493 17.1855 3.00501 17.1473 2.9288 17.0711C2.77634 16.9186 2.77634 16.6714 2.9288 16.5189L4.72791 14.7198C4.88037 14.5674 5.12759 14.5674 5.28009 14.7198C5.43256 14.8722 5.43256 15.1195 5.28009 15.272L3.48099 17.0711C3.40474 17.1473 3.30478 17.1855 3.20485 17.1855Z" fill="white"/>
<path d="M16.795 17.1855C16.6951 17.1855 16.5952 17.1473 16.5189 17.0711L14.7198 15.272C14.5674 15.1195 14.5674 14.8723 14.7198 14.7198C14.8723 14.5674 15.1195 14.5674 15.272 14.7198L17.0711 16.5189C17.2236 16.6714 17.2236 16.9186 17.0711 17.0711C16.9949 17.1473 16.8949 17.1855 16.795 17.1855Z" fill="white"/>
<path d="M5.00396 5.39451C4.90404 5.39451 4.80412 5.35634 4.72791 5.28013L2.9288 3.48108C2.77634 3.32862 2.77634 3.08139 2.9288 2.92889C3.08126 2.77647 3.32849 2.77647 3.48099 2.92889L5.28009 4.72799C5.43256 4.88045 5.43256 5.12767 5.28009 5.28017C5.20384 5.35638 5.10388 5.39451 5.00396 5.39451Z" fill="white"/>
</svg>
