<svg width="20" height="20" viewBox="0 0 20 20" fill="none" xmlns="http://www.w3.org/2000/svg">
<path d="M10.0001 2.73083C11.3825 2.73083 12.5026 3.851 12.5026 5.23333C12.5026 6.61567 11.3825 7.73583 10.0001 7.73583C8.6178 7.73583 7.49763 6.61567 7.49763 5.23333C7.49763 3.851 8.6178 2.73083 10.0001 2.73083ZM10.0001 13.4558C13.5394 13.4558 17.2693 15.1957 17.2693 15.9583V17.2692H2.73096V15.9583C2.73096 15.1957 6.46088 13.4558 10.0001 13.4558ZM10.0001 0.466667C7.36655 0.466667 5.23346 2.59975 5.23346 5.23333C5.23346 7.86692 7.36655 10 10.0001 10C12.6337 10 14.7668 7.86692 14.7668 5.23333C14.7668 2.59975 12.6337 0.466667 10.0001 0.466667ZM10.0001 11.1917C6.81838 11.1917 0.466797 12.7885 0.466797 15.9583V19.5333H19.5335V15.9583C19.5335 12.7885 13.1819 11.1917 10.0001 11.1917Z" fill="#1A4E87"/>
</svg>
