<svg width="22" height="22" viewBox="0 0 22 22" fill="none" xmlns="http://www.w3.org/2000/svg">
<path fill-rule="evenodd" clip-rule="evenodd" d="M10.9998 0.166687C5.01984 0.166687 0.166504 5.02002 0.166504 11C0.166504 16.98 5.01984 21.8334 10.9998 21.8334C16.9798 21.8334 21.8332 16.98 21.8332 11C21.8332 5.02002 16.9798 0.166687 10.9998 0.166687ZM2.33317 11C2.33317 10.3392 2.41984 9.68919 2.56067 9.07169L7.739 14.25V15.3334C7.739 16.525 8.714 17.5 9.90567 17.5V19.5909C5.64817 19.0492 2.33317 15.4092 2.33317 11ZM15.3224 15.3334C16.2974 15.3334 17.099 15.9725 17.3807 16.85C18.789 15.3117 19.6665 13.2534 19.6665 11C19.6665 7.37087 17.4132 4.25087 14.239 2.97254V3.4167C14.239 4.60837 13.264 5.58337 12.0724 5.58337H9.90569V7.75004C9.90569 8.34587 9.41819 8.83337 8.82236 8.83337H6.65569V11H13.1557C13.7515 11 14.239 11.4875 14.239 12.0834V15.3334H15.3224Z" fill="#1A4E87"/>
</svg>
